%TF.GenerationSoftware,KiCad,Pcbnew,5.1.8-db9833491~88~ubuntu20.04.1*%
%TF.CreationDate,2020-12-10T20:55:53+01:00*%
%TF.ProjectId,Boost_DC_Converter_TPS61088RHLR,426f6f73-745f-4444-935f-436f6e766572,V1.0*%
%TF.SameCoordinates,Original*%
%TF.FileFunction,Legend,Top*%
%TF.FilePolarity,Positive*%
%FSLAX46Y46*%
G04 Gerber Fmt 4.6, Leading zero omitted, Abs format (unit mm)*
G04 Created by KiCad (PCBNEW 5.1.8-db9833491~88~ubuntu20.04.1) date 2020-12-10 20:55:53*
%MOMM*%
%LPD*%
G01*
G04 APERTURE LIST*
%ADD10C,0.152400*%
%ADD11C,0.150000*%
%ADD12C,0.305000*%
%ADD13C,0.120000*%
%ADD14C,0.127000*%
%ADD15C,0.250000*%
%ADD16C,0.317500*%
G04 APERTURE END LIST*
D10*
%TO.C,U1*%
X162974919Y-50934920D02*
X162289919Y-50934920D01*
X162974919Y-50749922D02*
X162974919Y-50934920D01*
X159024919Y-50749922D02*
X159024919Y-50934920D01*
X159209917Y-50934920D02*
X159024919Y-50934920D01*
X159209917Y-45985080D02*
X159024919Y-45985080D01*
X159024919Y-45985080D02*
X159024919Y-46170078D01*
X162975081Y-45985080D02*
X162790083Y-45985080D01*
X162975081Y-45985080D02*
X162975081Y-46170078D01*
D11*
%TO.C,C1*%
X160770000Y-37320000D02*
X160770000Y-39020000D01*
X160770000Y-37320000D02*
X163670000Y-37320000D01*
X163670000Y-37320000D02*
X163670000Y-39020000D01*
X163670000Y-42570000D02*
X163670000Y-40920000D01*
X160770000Y-42620000D02*
X160770000Y-40920000D01*
X160770000Y-42620000D02*
X163670000Y-42620000D01*
%TO.C,C2*%
X165700000Y-38850000D02*
X165700000Y-39550000D01*
X164500000Y-38850000D02*
X165700000Y-38850000D01*
X164500000Y-39550000D02*
X164500000Y-38850000D01*
X165700000Y-41150000D02*
X165700000Y-40450000D01*
X164500000Y-41150000D02*
X165700000Y-41150000D01*
X164500000Y-40450000D02*
X164500000Y-41150000D01*
%TO.C,C3*%
X156660000Y-54880000D02*
X157360000Y-54880000D01*
X157360000Y-54880000D02*
X157360000Y-53680000D01*
X157360000Y-53680000D02*
X156660000Y-53680000D01*
X155760000Y-54880000D02*
X155060000Y-54880000D01*
X155060000Y-54880000D02*
X155060000Y-53680000D01*
X155060000Y-53680000D02*
X155760000Y-53680000D01*
%TO.C,C4*%
X156080000Y-51900000D02*
X156080000Y-51200000D01*
X156080000Y-51200000D02*
X154880000Y-51200000D01*
X154880000Y-51200000D02*
X154880000Y-51900000D01*
X156080000Y-52800000D02*
X156080000Y-53500000D01*
X156080000Y-53500000D02*
X154880000Y-53500000D01*
X154880000Y-53500000D02*
X154880000Y-52800000D01*
%TO.C,C5*%
X159800000Y-44470000D02*
X160500000Y-44470000D01*
X159800000Y-45670000D02*
X159800000Y-44470000D01*
X160500000Y-45670000D02*
X159800000Y-45670000D01*
X162100000Y-44470000D02*
X161400000Y-44470000D01*
X162100000Y-45670000D02*
X162100000Y-44470000D01*
X161400000Y-45670000D02*
X162100000Y-45670000D01*
%TO.C,C6*%
X159870000Y-51500000D02*
X160570000Y-51500000D01*
X159870000Y-52700000D02*
X159870000Y-51500000D01*
X160570000Y-52700000D02*
X159870000Y-52700000D01*
X162170000Y-51500000D02*
X161470000Y-51500000D01*
X162170000Y-52700000D02*
X162170000Y-51500000D01*
X161470000Y-52700000D02*
X162170000Y-52700000D01*
%TO.C,C7*%
X164840000Y-46820000D02*
X164840000Y-46120000D01*
X164840000Y-46120000D02*
X163640000Y-46120000D01*
X163640000Y-46120000D02*
X163640000Y-46820000D01*
X164840000Y-47720000D02*
X164840000Y-48420000D01*
X164840000Y-48420000D02*
X163640000Y-48420000D01*
X163640000Y-48420000D02*
X163640000Y-47720000D01*
D12*
%TO.C,C8*%
X152000000Y-48930000D02*
X152200000Y-48930000D01*
X152000000Y-44630000D02*
X152000000Y-48930000D01*
X152000000Y-44630000D02*
X152200000Y-44630000D01*
X155300000Y-48930000D02*
X155300000Y-44730000D01*
X155300000Y-48930000D02*
X155200000Y-48930000D01*
X155300000Y-44630000D02*
X155200000Y-44630000D01*
X152000000Y-46630000D02*
X155200000Y-46630000D01*
D13*
%TO.C,C9*%
X147040000Y-44030000D02*
X147040000Y-52090000D01*
X151560000Y-44030000D02*
X147040000Y-44030000D01*
X151560000Y-52090000D02*
X151560000Y-44030000D01*
%TO.C,C10*%
X141030000Y-52100000D02*
X141030000Y-44040000D01*
X141030000Y-44040000D02*
X136510000Y-44040000D01*
X136510000Y-44040000D02*
X136510000Y-52100000D01*
%TO.C,C11*%
X141780000Y-44040000D02*
X141780000Y-52100000D01*
X146300000Y-44040000D02*
X141780000Y-44040000D01*
X146300000Y-52100000D02*
X146300000Y-44040000D01*
D11*
%TO.C,P1*%
X159250000Y-43690000D02*
X149050000Y-43690000D01*
X159250000Y-35890000D02*
X149050000Y-35890000D01*
X159250000Y-35890000D02*
X159250000Y-43690000D01*
X149050000Y-43690000D02*
X149050000Y-35890000D01*
X155650000Y-35890000D02*
X155650000Y-36890000D01*
X155650000Y-36890000D02*
X157650000Y-36890000D01*
X157650000Y-36890000D02*
X157650000Y-35890000D01*
X150650000Y-35890000D02*
X150650000Y-36890000D01*
X150650000Y-36890000D02*
X152650000Y-36890000D01*
X152650000Y-36890000D02*
X152650000Y-35890000D01*
X159250000Y-41190000D02*
X149050000Y-41190000D01*
X159250000Y-43090000D02*
X159950000Y-43090000D01*
X159250000Y-41890000D02*
X159950000Y-41890000D01*
X159950000Y-43090000D02*
X159950000Y-41890000D01*
%TO.C,P2*%
X138350000Y-53980000D02*
X138350000Y-55180000D01*
X139050000Y-55180000D02*
X138350000Y-55180000D01*
X139050000Y-53980000D02*
X138350000Y-53980000D01*
X139050000Y-55880000D02*
X149250000Y-55880000D01*
X145650000Y-60180000D02*
X145650000Y-61180000D01*
X147650000Y-60180000D02*
X145650000Y-60180000D01*
X147650000Y-61180000D02*
X147650000Y-60180000D01*
X140650000Y-60180000D02*
X140650000Y-61180000D01*
X142650000Y-60180000D02*
X140650000Y-60180000D01*
X142650000Y-61180000D02*
X142650000Y-60180000D01*
X149250000Y-53380000D02*
X149250000Y-61180000D01*
X139050000Y-61180000D02*
X139050000Y-53380000D01*
X139050000Y-61180000D02*
X149250000Y-61180000D01*
X139050000Y-53380000D02*
X149250000Y-53380000D01*
%TO.C,P3*%
X149950000Y-43090000D02*
X149950000Y-41890000D01*
X149250000Y-41890000D02*
X149950000Y-41890000D01*
X149250000Y-43090000D02*
X149950000Y-43090000D01*
X149250000Y-41190000D02*
X139050000Y-41190000D01*
X142650000Y-36890000D02*
X142650000Y-35890000D01*
X140650000Y-36890000D02*
X142650000Y-36890000D01*
X140650000Y-35890000D02*
X140650000Y-36890000D01*
X147650000Y-36890000D02*
X147650000Y-35890000D01*
X145650000Y-36890000D02*
X147650000Y-36890000D01*
X145650000Y-35890000D02*
X145650000Y-36890000D01*
X139050000Y-43690000D02*
X139050000Y-35890000D01*
X149250000Y-35890000D02*
X149250000Y-43690000D01*
X149250000Y-35890000D02*
X139050000Y-35890000D01*
X149250000Y-43690000D02*
X139050000Y-43690000D01*
%TO.C,R1*%
X157510000Y-51900000D02*
X157510000Y-51200000D01*
X157510000Y-51200000D02*
X156310000Y-51200000D01*
X156310000Y-51200000D02*
X156310000Y-51900000D01*
X157510000Y-52800000D02*
X157510000Y-53500000D01*
X157510000Y-53500000D02*
X156310000Y-53500000D01*
X156310000Y-53500000D02*
X156310000Y-52800000D01*
%TO.C,R2*%
X157750000Y-53510000D02*
X157750000Y-52810000D01*
X158950000Y-53510000D02*
X157750000Y-53510000D01*
X158950000Y-52810000D02*
X158950000Y-53510000D01*
X157750000Y-51210000D02*
X157750000Y-51910000D01*
X158950000Y-51210000D02*
X157750000Y-51210000D01*
X158950000Y-51910000D02*
X158950000Y-51210000D01*
%TO.C,R3*%
X164840000Y-48590000D02*
X164840000Y-49290000D01*
X163640000Y-48590000D02*
X164840000Y-48590000D01*
X163640000Y-49290000D02*
X163640000Y-48590000D01*
X164840000Y-50890000D02*
X164840000Y-50190000D01*
X163640000Y-50890000D02*
X164840000Y-50890000D01*
X163640000Y-50190000D02*
X163640000Y-50890000D01*
%TO.C,R4*%
X158420000Y-48200000D02*
X158420000Y-47500000D01*
X158420000Y-47500000D02*
X157220000Y-47500000D01*
X157220000Y-47500000D02*
X157220000Y-48200000D01*
X158420000Y-49100000D02*
X158420000Y-49800000D01*
X158420000Y-49800000D02*
X157220000Y-49800000D01*
X157220000Y-49800000D02*
X157220000Y-49100000D01*
%TO.C,R5*%
X156830000Y-47480000D02*
X156830000Y-48180000D01*
X155630000Y-47480000D02*
X156830000Y-47480000D01*
X155630000Y-48180000D02*
X155630000Y-47480000D01*
X156830000Y-49780000D02*
X156830000Y-49080000D01*
X155630000Y-49780000D02*
X156830000Y-49780000D01*
X155630000Y-49080000D02*
X155630000Y-49780000D01*
D13*
%TO.C,L1*%
X167720000Y-44740000D02*
X165320000Y-44740000D01*
X165320000Y-55240000D02*
X167720000Y-55240000D01*
X165320000Y-44740000D02*
X165320000Y-55240000D01*
X174320000Y-44740000D02*
X171920000Y-44740000D01*
X174320000Y-55240000D02*
X174320000Y-44740000D01*
X171920000Y-55240000D02*
X174320000Y-55240000D01*
D11*
%TO.C,MH1*%
X138730000Y-56910000D02*
G75*
G03*
X138730000Y-56910000I-4100000J0D01*
G01*
%TO.C,MH2*%
X182900000Y-56850000D02*
G75*
G03*
X182900000Y-56850000I-4100000J0D01*
G01*
%TO.C,MH3*%
X138700000Y-40050000D02*
G75*
G03*
X138700000Y-40050000I-4100000J0D01*
G01*
%TO.C,MH4*%
X182930000Y-40070000D02*
G75*
G03*
X182930000Y-40070000I-4100000J0D01*
G01*
%TO.C,U1*%
X162398095Y-51632380D02*
X162398095Y-52441904D01*
X162445714Y-52537142D01*
X162493333Y-52584761D01*
X162588571Y-52632380D01*
X162779047Y-52632380D01*
X162874285Y-52584761D01*
X162921904Y-52537142D01*
X162969523Y-52441904D01*
X162969523Y-51632380D01*
X163969523Y-52632380D02*
X163398095Y-52632380D01*
X163683809Y-52632380D02*
X163683809Y-51632380D01*
X163588571Y-51775238D01*
X163493333Y-51870476D01*
X163398095Y-51918095D01*
%TO.C,C1*%
X164613333Y-37847142D02*
X164565714Y-37894761D01*
X164422857Y-37942380D01*
X164327619Y-37942380D01*
X164184761Y-37894761D01*
X164089523Y-37799523D01*
X164041904Y-37704285D01*
X163994285Y-37513809D01*
X163994285Y-37370952D01*
X164041904Y-37180476D01*
X164089523Y-37085238D01*
X164184761Y-36990000D01*
X164327619Y-36942380D01*
X164422857Y-36942380D01*
X164565714Y-36990000D01*
X164613333Y-37037619D01*
X165565714Y-37942380D02*
X164994285Y-37942380D01*
X165280000Y-37942380D02*
X165280000Y-36942380D01*
X165184761Y-37085238D01*
X165089523Y-37180476D01*
X164994285Y-37228095D01*
%TO.C,C2*%
D14*
X164894166Y-42226785D02*
X164863928Y-42257023D01*
X164773214Y-42287261D01*
X164712738Y-42287261D01*
X164622023Y-42257023D01*
X164561547Y-42196547D01*
X164531309Y-42136071D01*
X164501071Y-42015119D01*
X164501071Y-41924404D01*
X164531309Y-41803452D01*
X164561547Y-41742976D01*
X164622023Y-41682500D01*
X164712738Y-41652261D01*
X164773214Y-41652261D01*
X164863928Y-41682500D01*
X164894166Y-41712738D01*
X165136071Y-41712738D02*
X165166309Y-41682500D01*
X165226785Y-41652261D01*
X165377976Y-41652261D01*
X165438452Y-41682500D01*
X165468690Y-41712738D01*
X165498928Y-41773214D01*
X165498928Y-41833690D01*
X165468690Y-41924404D01*
X165105833Y-42287261D01*
X165498928Y-42287261D01*
%TO.C,C3*%
X158164166Y-54686785D02*
X158133928Y-54717023D01*
X158043214Y-54747261D01*
X157982738Y-54747261D01*
X157892023Y-54717023D01*
X157831547Y-54656547D01*
X157801309Y-54596071D01*
X157771071Y-54475119D01*
X157771071Y-54384404D01*
X157801309Y-54263452D01*
X157831547Y-54202976D01*
X157892023Y-54142500D01*
X157982738Y-54112261D01*
X158043214Y-54112261D01*
X158133928Y-54142500D01*
X158164166Y-54172738D01*
X158375833Y-54112261D02*
X158768928Y-54112261D01*
X158557261Y-54354166D01*
X158647976Y-54354166D01*
X158708452Y-54384404D01*
X158738690Y-54414642D01*
X158768928Y-54475119D01*
X158768928Y-54626309D01*
X158738690Y-54686785D01*
X158708452Y-54717023D01*
X158647976Y-54747261D01*
X158466547Y-54747261D01*
X158406071Y-54717023D01*
X158375833Y-54686785D01*
%TO.C,C4*%
X153944166Y-53846785D02*
X153913928Y-53877023D01*
X153823214Y-53907261D01*
X153762738Y-53907261D01*
X153672023Y-53877023D01*
X153611547Y-53816547D01*
X153581309Y-53756071D01*
X153551071Y-53635119D01*
X153551071Y-53544404D01*
X153581309Y-53423452D01*
X153611547Y-53362976D01*
X153672023Y-53302500D01*
X153762738Y-53272261D01*
X153823214Y-53272261D01*
X153913928Y-53302500D01*
X153944166Y-53332738D01*
X154488452Y-53483928D02*
X154488452Y-53907261D01*
X154337261Y-53242023D02*
X154186071Y-53695595D01*
X154579166Y-53695595D01*
%TO.C,C5*%
X158654166Y-44696785D02*
X158623928Y-44727023D01*
X158533214Y-44757261D01*
X158472738Y-44757261D01*
X158382023Y-44727023D01*
X158321547Y-44666547D01*
X158291309Y-44606071D01*
X158261071Y-44485119D01*
X158261071Y-44394404D01*
X158291309Y-44273452D01*
X158321547Y-44212976D01*
X158382023Y-44152500D01*
X158472738Y-44122261D01*
X158533214Y-44122261D01*
X158623928Y-44152500D01*
X158654166Y-44182738D01*
X159228690Y-44122261D02*
X158926309Y-44122261D01*
X158896071Y-44424642D01*
X158926309Y-44394404D01*
X158986785Y-44364166D01*
X159137976Y-44364166D01*
X159198452Y-44394404D01*
X159228690Y-44424642D01*
X159258928Y-44485119D01*
X159258928Y-44636309D01*
X159228690Y-44696785D01*
X159198452Y-44727023D01*
X159137976Y-44757261D01*
X158986785Y-44757261D01*
X158926309Y-44727023D01*
X158896071Y-44696785D01*
%TO.C,C6*%
X160924166Y-53546785D02*
X160893928Y-53577023D01*
X160803214Y-53607261D01*
X160742738Y-53607261D01*
X160652023Y-53577023D01*
X160591547Y-53516547D01*
X160561309Y-53456071D01*
X160531071Y-53335119D01*
X160531071Y-53244404D01*
X160561309Y-53123452D01*
X160591547Y-53062976D01*
X160652023Y-53002500D01*
X160742738Y-52972261D01*
X160803214Y-52972261D01*
X160893928Y-53002500D01*
X160924166Y-53032738D01*
X161468452Y-52972261D02*
X161347500Y-52972261D01*
X161287023Y-53002500D01*
X161256785Y-53032738D01*
X161196309Y-53123452D01*
X161166071Y-53244404D01*
X161166071Y-53486309D01*
X161196309Y-53546785D01*
X161226547Y-53577023D01*
X161287023Y-53607261D01*
X161407976Y-53607261D01*
X161468452Y-53577023D01*
X161498690Y-53546785D01*
X161528928Y-53486309D01*
X161528928Y-53335119D01*
X161498690Y-53274642D01*
X161468452Y-53244404D01*
X161407976Y-53214166D01*
X161287023Y-53214166D01*
X161226547Y-53244404D01*
X161196309Y-53274642D01*
X161166071Y-53335119D01*
%TO.C,C7*%
X164054166Y-45626785D02*
X164023928Y-45657023D01*
X163933214Y-45687261D01*
X163872738Y-45687261D01*
X163782023Y-45657023D01*
X163721547Y-45596547D01*
X163691309Y-45536071D01*
X163661071Y-45415119D01*
X163661071Y-45324404D01*
X163691309Y-45203452D01*
X163721547Y-45142976D01*
X163782023Y-45082500D01*
X163872738Y-45052261D01*
X163933214Y-45052261D01*
X164023928Y-45082500D01*
X164054166Y-45112738D01*
X164265833Y-45052261D02*
X164689166Y-45052261D01*
X164417023Y-45687261D01*
%TO.C,C8*%
D15*
X153043333Y-50707142D02*
X152995714Y-50754761D01*
X152852857Y-50802380D01*
X152757619Y-50802380D01*
X152614761Y-50754761D01*
X152519523Y-50659523D01*
X152471904Y-50564285D01*
X152424285Y-50373809D01*
X152424285Y-50230952D01*
X152471904Y-50040476D01*
X152519523Y-49945238D01*
X152614761Y-49850000D01*
X152757619Y-49802380D01*
X152852857Y-49802380D01*
X152995714Y-49850000D01*
X153043333Y-49897619D01*
X153614761Y-50230952D02*
X153519523Y-50183333D01*
X153471904Y-50135714D01*
X153424285Y-50040476D01*
X153424285Y-49992857D01*
X153471904Y-49897619D01*
X153519523Y-49850000D01*
X153614761Y-49802380D01*
X153805238Y-49802380D01*
X153900476Y-49850000D01*
X153948095Y-49897619D01*
X153995714Y-49992857D01*
X153995714Y-50040476D01*
X153948095Y-50135714D01*
X153900476Y-50183333D01*
X153805238Y-50230952D01*
X153614761Y-50230952D01*
X153519523Y-50278571D01*
X153471904Y-50326190D01*
X153424285Y-50421428D01*
X153424285Y-50611904D01*
X153471904Y-50707142D01*
X153519523Y-50754761D01*
X153614761Y-50802380D01*
X153805238Y-50802380D01*
X153900476Y-50754761D01*
X153948095Y-50707142D01*
X153995714Y-50611904D01*
X153995714Y-50421428D01*
X153948095Y-50326190D01*
X153900476Y-50278571D01*
X153805238Y-50230952D01*
%TO.C,C9*%
D11*
X152593333Y-52197142D02*
X152545714Y-52244761D01*
X152402857Y-52292380D01*
X152307619Y-52292380D01*
X152164761Y-52244761D01*
X152069523Y-52149523D01*
X152021904Y-52054285D01*
X151974285Y-51863809D01*
X151974285Y-51720952D01*
X152021904Y-51530476D01*
X152069523Y-51435238D01*
X152164761Y-51340000D01*
X152307619Y-51292380D01*
X152402857Y-51292380D01*
X152545714Y-51340000D01*
X152593333Y-51387619D01*
X153069523Y-52292380D02*
X153260000Y-52292380D01*
X153355238Y-52244761D01*
X153402857Y-52197142D01*
X153498095Y-52054285D01*
X153545714Y-51863809D01*
X153545714Y-51482857D01*
X153498095Y-51387619D01*
X153450476Y-51340000D01*
X153355238Y-51292380D01*
X153164761Y-51292380D01*
X153069523Y-51340000D01*
X153021904Y-51387619D01*
X152974285Y-51482857D01*
X152974285Y-51720952D01*
X153021904Y-51816190D01*
X153069523Y-51863809D01*
X153164761Y-51911428D01*
X153355238Y-51911428D01*
X153450476Y-51863809D01*
X153498095Y-51816190D01*
X153545714Y-51720952D01*
%TO.C,C10*%
X135867142Y-48932857D02*
X135914761Y-48980476D01*
X135962380Y-49123333D01*
X135962380Y-49218571D01*
X135914761Y-49361428D01*
X135819523Y-49456666D01*
X135724285Y-49504285D01*
X135533809Y-49551904D01*
X135390952Y-49551904D01*
X135200476Y-49504285D01*
X135105238Y-49456666D01*
X135010000Y-49361428D01*
X134962380Y-49218571D01*
X134962380Y-49123333D01*
X135010000Y-48980476D01*
X135057619Y-48932857D01*
X135962380Y-47980476D02*
X135962380Y-48551904D01*
X135962380Y-48266190D02*
X134962380Y-48266190D01*
X135105238Y-48361428D01*
X135200476Y-48456666D01*
X135248095Y-48551904D01*
X134962380Y-47361428D02*
X134962380Y-47266190D01*
X135010000Y-47170952D01*
X135057619Y-47123333D01*
X135152857Y-47075714D01*
X135343333Y-47028095D01*
X135581428Y-47028095D01*
X135771904Y-47075714D01*
X135867142Y-47123333D01*
X135914761Y-47170952D01*
X135962380Y-47266190D01*
X135962380Y-47361428D01*
X135914761Y-47456666D01*
X135867142Y-47504285D01*
X135771904Y-47551904D01*
X135581428Y-47599523D01*
X135343333Y-47599523D01*
X135152857Y-47551904D01*
X135057619Y-47504285D01*
X135010000Y-47456666D01*
X134962380Y-47361428D01*
%TO.C,C11*%
X150167142Y-54037142D02*
X150119523Y-54084761D01*
X149976666Y-54132380D01*
X149881428Y-54132380D01*
X149738571Y-54084761D01*
X149643333Y-53989523D01*
X149595714Y-53894285D01*
X149548095Y-53703809D01*
X149548095Y-53560952D01*
X149595714Y-53370476D01*
X149643333Y-53275238D01*
X149738571Y-53180000D01*
X149881428Y-53132380D01*
X149976666Y-53132380D01*
X150119523Y-53180000D01*
X150167142Y-53227619D01*
X151119523Y-54132380D02*
X150548095Y-54132380D01*
X150833809Y-54132380D02*
X150833809Y-53132380D01*
X150738571Y-53275238D01*
X150643333Y-53370476D01*
X150548095Y-53418095D01*
X152071904Y-54132380D02*
X151500476Y-54132380D01*
X151786190Y-54132380D02*
X151786190Y-53132380D01*
X151690952Y-53275238D01*
X151595714Y-53370476D01*
X151500476Y-53418095D01*
%TO.C,P1*%
X160151904Y-44042380D02*
X160151904Y-43042380D01*
X160532857Y-43042380D01*
X160628095Y-43090000D01*
X160675714Y-43137619D01*
X160723333Y-43232857D01*
X160723333Y-43375714D01*
X160675714Y-43470952D01*
X160628095Y-43518571D01*
X160532857Y-43566190D01*
X160151904Y-43566190D01*
X161675714Y-44042380D02*
X161104285Y-44042380D01*
X161390000Y-44042380D02*
X161390000Y-43042380D01*
X161294761Y-43185238D01*
X161199523Y-43280476D01*
X161104285Y-43328095D01*
X151394285Y-41977619D02*
X151441904Y-41930000D01*
X151537142Y-41882380D01*
X151775238Y-41882380D01*
X151870476Y-41930000D01*
X151918095Y-41977619D01*
X151965714Y-42072857D01*
X151965714Y-42168095D01*
X151918095Y-42310952D01*
X151346666Y-42882380D01*
X151965714Y-42882380D01*
X157055714Y-42922380D02*
X156484285Y-42922380D01*
X156770000Y-42922380D02*
X156770000Y-41922380D01*
X156674761Y-42065238D01*
X156579523Y-42160476D01*
X156484285Y-42208095D01*
%TO.C,P2*%
X149621904Y-56352380D02*
X149621904Y-55352380D01*
X150002857Y-55352380D01*
X150098095Y-55400000D01*
X150145714Y-55447619D01*
X150193333Y-55542857D01*
X150193333Y-55685714D01*
X150145714Y-55780952D01*
X150098095Y-55828571D01*
X150002857Y-55876190D01*
X149621904Y-55876190D01*
X150574285Y-55447619D02*
X150621904Y-55400000D01*
X150717142Y-55352380D01*
X150955238Y-55352380D01*
X151050476Y-55400000D01*
X151098095Y-55447619D01*
X151145714Y-55542857D01*
X151145714Y-55638095D01*
X151098095Y-55780952D01*
X150526666Y-56352380D01*
X151145714Y-56352380D01*
X141815714Y-55052380D02*
X141244285Y-55052380D01*
X141530000Y-55052380D02*
X141530000Y-54052380D01*
X141434761Y-54195238D01*
X141339523Y-54290476D01*
X141244285Y-54338095D01*
X146334285Y-54187619D02*
X146381904Y-54140000D01*
X146477142Y-54092380D01*
X146715238Y-54092380D01*
X146810476Y-54140000D01*
X146858095Y-54187619D01*
X146905714Y-54282857D01*
X146905714Y-54378095D01*
X146858095Y-54520952D01*
X146286666Y-55092380D01*
X146905714Y-55092380D01*
%TO.C,P3*%
X133321904Y-45642380D02*
X133321904Y-44642380D01*
X133702857Y-44642380D01*
X133798095Y-44690000D01*
X133845714Y-44737619D01*
X133893333Y-44832857D01*
X133893333Y-44975714D01*
X133845714Y-45070952D01*
X133798095Y-45118571D01*
X133702857Y-45166190D01*
X133321904Y-45166190D01*
X134226666Y-44642380D02*
X134845714Y-44642380D01*
X134512380Y-45023333D01*
X134655238Y-45023333D01*
X134750476Y-45070952D01*
X134798095Y-45118571D01*
X134845714Y-45213809D01*
X134845714Y-45451904D01*
X134798095Y-45547142D01*
X134750476Y-45594761D01*
X134655238Y-45642380D01*
X134369523Y-45642380D01*
X134274285Y-45594761D01*
X134226666Y-45547142D01*
X147055714Y-42922380D02*
X146484285Y-42922380D01*
X146770000Y-42922380D02*
X146770000Y-41922380D01*
X146674761Y-42065238D01*
X146579523Y-42160476D01*
X146484285Y-42208095D01*
X141394285Y-41977619D02*
X141441904Y-41930000D01*
X141537142Y-41882380D01*
X141775238Y-41882380D01*
X141870476Y-41930000D01*
X141918095Y-41977619D01*
X141965714Y-42072857D01*
X141965714Y-42168095D01*
X141918095Y-42310952D01*
X141346666Y-42882380D01*
X141965714Y-42882380D01*
%TO.C,R1*%
D14*
X155424166Y-50967261D02*
X155212500Y-50664880D01*
X155061309Y-50967261D02*
X155061309Y-50332261D01*
X155303214Y-50332261D01*
X155363690Y-50362500D01*
X155393928Y-50392738D01*
X155424166Y-50453214D01*
X155424166Y-50543928D01*
X155393928Y-50604404D01*
X155363690Y-50634642D01*
X155303214Y-50664880D01*
X155061309Y-50664880D01*
X156028928Y-50967261D02*
X155666071Y-50967261D01*
X155847500Y-50967261D02*
X155847500Y-50332261D01*
X155787023Y-50422976D01*
X155726547Y-50483452D01*
X155666071Y-50513690D01*
%TO.C,R2*%
X159867261Y-52595833D02*
X159564880Y-52807500D01*
X159867261Y-52958690D02*
X159232261Y-52958690D01*
X159232261Y-52716785D01*
X159262500Y-52656309D01*
X159292738Y-52626071D01*
X159353214Y-52595833D01*
X159443928Y-52595833D01*
X159504404Y-52626071D01*
X159534642Y-52656309D01*
X159564880Y-52716785D01*
X159564880Y-52958690D01*
X159292738Y-52353928D02*
X159262500Y-52323690D01*
X159232261Y-52263214D01*
X159232261Y-52112023D01*
X159262500Y-52051547D01*
X159292738Y-52021309D01*
X159353214Y-51991071D01*
X159413690Y-51991071D01*
X159504404Y-52021309D01*
X159867261Y-52384166D01*
X159867261Y-51991071D01*
%TO.C,R3*%
X164424166Y-52007261D02*
X164212500Y-51704880D01*
X164061309Y-52007261D02*
X164061309Y-51372261D01*
X164303214Y-51372261D01*
X164363690Y-51402500D01*
X164393928Y-51432738D01*
X164424166Y-51493214D01*
X164424166Y-51583928D01*
X164393928Y-51644404D01*
X164363690Y-51674642D01*
X164303214Y-51704880D01*
X164061309Y-51704880D01*
X164635833Y-51372261D02*
X165028928Y-51372261D01*
X164817261Y-51614166D01*
X164907976Y-51614166D01*
X164968452Y-51644404D01*
X164998690Y-51674642D01*
X165028928Y-51735119D01*
X165028928Y-51886309D01*
X164998690Y-51946785D01*
X164968452Y-51977023D01*
X164907976Y-52007261D01*
X164726547Y-52007261D01*
X164666071Y-51977023D01*
X164635833Y-51946785D01*
%TO.C,R4*%
X157674166Y-47197261D02*
X157462500Y-46894880D01*
X157311309Y-47197261D02*
X157311309Y-46562261D01*
X157553214Y-46562261D01*
X157613690Y-46592500D01*
X157643928Y-46622738D01*
X157674166Y-46683214D01*
X157674166Y-46773928D01*
X157643928Y-46834404D01*
X157613690Y-46864642D01*
X157553214Y-46894880D01*
X157311309Y-46894880D01*
X158218452Y-46773928D02*
X158218452Y-47197261D01*
X158067261Y-46532023D02*
X157916071Y-46985595D01*
X158309166Y-46985595D01*
%TO.C,R5*%
X155974166Y-47207261D02*
X155762500Y-46904880D01*
X155611309Y-47207261D02*
X155611309Y-46572261D01*
X155853214Y-46572261D01*
X155913690Y-46602500D01*
X155943928Y-46632738D01*
X155974166Y-46693214D01*
X155974166Y-46783928D01*
X155943928Y-46844404D01*
X155913690Y-46874642D01*
X155853214Y-46904880D01*
X155611309Y-46904880D01*
X156548690Y-46572261D02*
X156246309Y-46572261D01*
X156216071Y-46874642D01*
X156246309Y-46844404D01*
X156306785Y-46814166D01*
X156457976Y-46814166D01*
X156518452Y-46844404D01*
X156548690Y-46874642D01*
X156578928Y-46935119D01*
X156578928Y-47086309D01*
X156548690Y-47146785D01*
X156518452Y-47177023D01*
X156457976Y-47207261D01*
X156306785Y-47207261D01*
X156246309Y-47177023D01*
X156216071Y-47146785D01*
%TO.C,L1*%
D16*
X175398333Y-50254523D02*
X174793571Y-50254523D01*
X174793571Y-48984523D01*
X176486904Y-50254523D02*
X175761190Y-50254523D01*
X176124047Y-50254523D02*
X176124047Y-48984523D01*
X176003095Y-49165952D01*
X175882142Y-49286904D01*
X175761190Y-49347380D01*
%TD*%
M02*
