%TF.GenerationSoftware,KiCad,Pcbnew,5.1.8-db9833491~88~ubuntu20.04.1*%
%TF.CreationDate,2020-12-10T20:55:53+01:00*%
%TF.ProjectId,Boost_DC_Converter_TPS61088RHLR,426f6f73-745f-4444-935f-436f6e766572,V1.0*%
%TF.SameCoordinates,Original*%
%TF.FileFunction,Copper,L1,Top*%
%TF.FilePolarity,Positive*%
%FSLAX46Y46*%
G04 Gerber Fmt 4.6, Leading zero omitted, Abs format (unit mm)*
G04 Created by KiCad (PCBNEW 5.1.8-db9833491~88~ubuntu20.04.1) date 2020-12-10 20:55:53*
%MOMM*%
%LPD*%
G01*
G04 APERTURE LIST*
%TA.AperFunction,EtchedComponent*%
%ADD10C,0.152400*%
%TD*%
%TA.AperFunction,SMDPad,CuDef*%
%ADD11R,0.370000X0.500000*%
%TD*%
%TA.AperFunction,SMDPad,CuDef*%
%ADD12R,0.930000X0.500000*%
%TD*%
%TA.AperFunction,ComponentPad*%
%ADD13C,0.499999*%
%TD*%
%TA.AperFunction,SMDPad,CuDef*%
%ADD14R,2.049999X3.050007*%
%TD*%
%TA.AperFunction,SMDPad,CuDef*%
%ADD15O,0.240000X0.599999*%
%TD*%
%TA.AperFunction,SMDPad,CuDef*%
%ADD16O,0.599999X0.240000*%
%TD*%
%TA.AperFunction,SMDPad,CuDef*%
%ADD17R,2.500000X1.524000*%
%TD*%
%TA.AperFunction,SMDPad,CuDef*%
%ADD18R,1.000000X0.600000*%
%TD*%
%TA.AperFunction,SMDPad,CuDef*%
%ADD19R,0.600000X1.000000*%
%TD*%
%TA.AperFunction,SMDPad,CuDef*%
%ADD20R,2.499360X1.950720*%
%TD*%
%TA.AperFunction,ComponentPad*%
%ADD21C,3.000000*%
%TD*%
%TA.AperFunction,SMDPad,CuDef*%
%ADD22R,4.000000X2.750000*%
%TD*%
%TA.AperFunction,ComponentPad*%
%ADD23C,1.000000*%
%TD*%
%TA.AperFunction,ComponentPad*%
%ADD24C,6.500000*%
%TD*%
%TA.AperFunction,ViaPad*%
%ADD25C,0.800000*%
%TD*%
%TA.AperFunction,Conductor*%
%ADD26C,0.250000*%
%TD*%
%TA.AperFunction,Conductor*%
%ADD27C,2.032000*%
%TD*%
%TA.AperFunction,Conductor*%
%ADD28C,0.508000*%
%TD*%
%TA.AperFunction,Conductor*%
%ADD29C,1.016000*%
%TD*%
%TA.AperFunction,Conductor*%
%ADD30C,0.200000*%
%TD*%
%TA.AperFunction,Conductor*%
%ADD31C,0.127000*%
%TD*%
%TA.AperFunction,Conductor*%
%ADD32C,0.254000*%
%TD*%
%TA.AperFunction,Conductor*%
%ADD33C,0.100000*%
%TD*%
G04 APERTURE END LIST*
D10*
%TO.C,U1*%
X161159918Y-46534919D02*
X160839919Y-46534919D01*
X160839919Y-50384924D02*
X161159918Y-50384924D01*
%TD*%
D11*
%TO.P,U1,21*%
%TO.N,GND*%
X160720000Y-46380000D03*
X161280000Y-46380000D03*
X160720000Y-50540000D03*
D12*
X161000000Y-46710000D03*
D11*
X161280000Y-50540000D03*
D12*
X161000000Y-50210000D03*
D13*
X161000000Y-47184999D03*
X160225000Y-48459921D03*
X161000000Y-49735001D03*
X161775000Y-48459921D03*
D14*
X160999919Y-48459921D03*
D15*
%TO.P,U1,20*%
X160249918Y-50610001D03*
D16*
%TO.P,U1,19*%
%TO.N,Net-(R2-Pad1)*%
X159350001Y-50209920D03*
%TO.P,U1,18*%
%TO.N,Net-(C4-Pad1)*%
X159350001Y-49709921D03*
%TO.P,U1,17*%
%TO.N,Net-(R4-Pad2)*%
X159350001Y-49209920D03*
%TO.P,U1,16*%
%TO.N,Net-(C10-Pad1)*%
X159350001Y-48709921D03*
%TO.P,U1,15*%
X159350001Y-48209922D03*
%TO.P,U1,14*%
X159350001Y-47709920D03*
%TO.P,U1,13*%
%TO.N,N/C*%
X159350001Y-47209921D03*
%TO.P,U1,12*%
X159350001Y-46709920D03*
D15*
%TO.P,U1,11*%
X160249918Y-46309999D03*
%TO.P,U1,10*%
%TO.N,Net-(C5-Pad1)*%
X161749920Y-46309999D03*
D16*
%TO.P,U1,9*%
%TO.N,Net-(C1-Pad1)*%
X162649999Y-46709920D03*
%TO.P,U1,8*%
%TO.N,Net-(C7-Pad1)*%
X162649999Y-47209921D03*
%TO.P,U1,7*%
%TO.N,Net-(C7-Pad2)*%
X162649999Y-47709920D03*
%TO.P,U1,6*%
X162649999Y-48209922D03*
%TO.P,U1,5*%
X162649999Y-48709921D03*
%TO.P,U1,4*%
X162649999Y-49209920D03*
%TO.P,U1,3*%
%TO.N,Net-(R3-Pad1)*%
X162649999Y-49709921D03*
%TO.P,U1,2*%
%TO.N,Net-(P2-Pad2)*%
X162649999Y-50209920D03*
D15*
%TO.P,U1,1*%
%TO.N,Net-(C6-Pad1)*%
X161749920Y-50610001D03*
%TD*%
D17*
%TO.P,C1,1*%
%TO.N,Net-(C1-Pad1)*%
X162220000Y-41658000D03*
%TO.P,C1,2*%
%TO.N,GND*%
X162220000Y-38282000D03*
%TD*%
D18*
%TO.P,C2,1*%
%TO.N,Net-(C1-Pad1)*%
X165100000Y-40700000D03*
%TO.P,C2,2*%
%TO.N,GND*%
X165100000Y-39300000D03*
%TD*%
D19*
%TO.P,C3,2*%
%TO.N,GND*%
X155510000Y-54280000D03*
%TO.P,C3,1*%
%TO.N,Net-(C3-Pad1)*%
X156910000Y-54280000D03*
%TD*%
D18*
%TO.P,C4,2*%
%TO.N,GND*%
X155480000Y-53050000D03*
%TO.P,C4,1*%
%TO.N,Net-(C4-Pad1)*%
X155480000Y-51650000D03*
%TD*%
D19*
%TO.P,C5,1*%
%TO.N,Net-(C5-Pad1)*%
X161650000Y-45070000D03*
%TO.P,C5,2*%
%TO.N,GND*%
X160250000Y-45070000D03*
%TD*%
%TO.P,C6,1*%
%TO.N,Net-(C6-Pad1)*%
X161720000Y-52100000D03*
%TO.P,C6,2*%
%TO.N,GND*%
X160320000Y-52100000D03*
%TD*%
D18*
%TO.P,C7,2*%
%TO.N,Net-(C7-Pad2)*%
X164240000Y-47970000D03*
%TO.P,C7,1*%
%TO.N,Net-(C7-Pad1)*%
X164240000Y-46570000D03*
%TD*%
D20*
%TO.P,C8,1*%
%TO.N,Net-(C10-Pad1)*%
X153700000Y-45306000D03*
%TO.P,C8,2*%
%TO.N,GND*%
X153700000Y-48354000D03*
%TD*%
%TO.P,C9,1*%
%TO.N,Net-(C10-Pad1)*%
%TA.AperFunction,SMDPad,CuDef*%
G36*
G01*
X148275000Y-44290000D02*
X150325000Y-44290000D01*
G75*
G02*
X150575000Y-44540000I0J-250000D01*
G01*
X150575000Y-46115000D01*
G75*
G02*
X150325000Y-46365000I-250000J0D01*
G01*
X148275000Y-46365000D01*
G75*
G02*
X148025000Y-46115000I0J250000D01*
G01*
X148025000Y-44540000D01*
G75*
G02*
X148275000Y-44290000I250000J0D01*
G01*
G37*
%TD.AperFunction*%
%TO.P,C9,2*%
%TO.N,GND*%
%TA.AperFunction,SMDPad,CuDef*%
G36*
G01*
X148275000Y-50515000D02*
X150325000Y-50515000D01*
G75*
G02*
X150575000Y-50765000I0J-250000D01*
G01*
X150575000Y-52340000D01*
G75*
G02*
X150325000Y-52590000I-250000J0D01*
G01*
X148275000Y-52590000D01*
G75*
G02*
X148025000Y-52340000I0J250000D01*
G01*
X148025000Y-50765000D01*
G75*
G02*
X148275000Y-50515000I250000J0D01*
G01*
G37*
%TD.AperFunction*%
%TD*%
%TO.P,C10,2*%
%TO.N,GND*%
%TA.AperFunction,SMDPad,CuDef*%
G36*
G01*
X137745000Y-50525000D02*
X139795000Y-50525000D01*
G75*
G02*
X140045000Y-50775000I0J-250000D01*
G01*
X140045000Y-52350000D01*
G75*
G02*
X139795000Y-52600000I-250000J0D01*
G01*
X137745000Y-52600000D01*
G75*
G02*
X137495000Y-52350000I0J250000D01*
G01*
X137495000Y-50775000D01*
G75*
G02*
X137745000Y-50525000I250000J0D01*
G01*
G37*
%TD.AperFunction*%
%TO.P,C10,1*%
%TO.N,Net-(C10-Pad1)*%
%TA.AperFunction,SMDPad,CuDef*%
G36*
G01*
X137745000Y-44300000D02*
X139795000Y-44300000D01*
G75*
G02*
X140045000Y-44550000I0J-250000D01*
G01*
X140045000Y-46125000D01*
G75*
G02*
X139795000Y-46375000I-250000J0D01*
G01*
X137745000Y-46375000D01*
G75*
G02*
X137495000Y-46125000I0J250000D01*
G01*
X137495000Y-44550000D01*
G75*
G02*
X137745000Y-44300000I250000J0D01*
G01*
G37*
%TD.AperFunction*%
%TD*%
%TO.P,C11,1*%
%TO.N,Net-(C10-Pad1)*%
%TA.AperFunction,SMDPad,CuDef*%
G36*
G01*
X143015000Y-44300000D02*
X145065000Y-44300000D01*
G75*
G02*
X145315000Y-44550000I0J-250000D01*
G01*
X145315000Y-46125000D01*
G75*
G02*
X145065000Y-46375000I-250000J0D01*
G01*
X143015000Y-46375000D01*
G75*
G02*
X142765000Y-46125000I0J250000D01*
G01*
X142765000Y-44550000D01*
G75*
G02*
X143015000Y-44300000I250000J0D01*
G01*
G37*
%TD.AperFunction*%
%TO.P,C11,2*%
%TO.N,GND*%
%TA.AperFunction,SMDPad,CuDef*%
G36*
G01*
X143015000Y-50525000D02*
X145065000Y-50525000D01*
G75*
G02*
X145315000Y-50775000I0J-250000D01*
G01*
X145315000Y-52350000D01*
G75*
G02*
X145065000Y-52600000I-250000J0D01*
G01*
X143015000Y-52600000D01*
G75*
G02*
X142765000Y-52350000I0J250000D01*
G01*
X142765000Y-50775000D01*
G75*
G02*
X143015000Y-50525000I250000J0D01*
G01*
G37*
%TD.AperFunction*%
%TD*%
D21*
%TO.P,P1,1*%
%TO.N,GND*%
X156650000Y-39090000D03*
%TO.P,P1,2*%
%TO.N,Net-(C1-Pad1)*%
X151650000Y-39090000D03*
%TD*%
%TO.P,P2,2*%
%TO.N,Net-(P2-Pad2)*%
X146650000Y-57980000D03*
%TO.P,P2,1*%
%TO.N,GND*%
X141650000Y-57980000D03*
%TD*%
%TO.P,P3,2*%
%TO.N,GND*%
X141650000Y-39090000D03*
%TO.P,P3,1*%
%TO.N,Net-(C10-Pad1)*%
X146650000Y-39090000D03*
%TD*%
D18*
%TO.P,R1,2*%
%TO.N,Net-(C3-Pad1)*%
X156910000Y-53050000D03*
%TO.P,R1,1*%
%TO.N,Net-(C4-Pad1)*%
X156910000Y-51650000D03*
%TD*%
%TO.P,R2,1*%
%TO.N,Net-(R2-Pad1)*%
X158350000Y-51660000D03*
%TO.P,R2,2*%
%TO.N,GND*%
X158350000Y-53060000D03*
%TD*%
%TO.P,R3,2*%
%TO.N,Net-(C7-Pad2)*%
X164240000Y-49040000D03*
%TO.P,R3,1*%
%TO.N,Net-(R3-Pad1)*%
X164240000Y-50440000D03*
%TD*%
%TO.P,R4,2*%
%TO.N,Net-(R4-Pad2)*%
X157820000Y-49350000D03*
%TO.P,R4,1*%
%TO.N,Net-(C10-Pad1)*%
X157820000Y-47950000D03*
%TD*%
%TO.P,R5,1*%
%TO.N,Net-(R4-Pad2)*%
X156230000Y-49330000D03*
%TO.P,R5,2*%
%TO.N,GND*%
X156230000Y-47930000D03*
%TD*%
D22*
%TO.P,L1,1*%
%TO.N,Net-(C1-Pad1)*%
X169820000Y-45640000D03*
%TO.P,L1,2*%
%TO.N,Net-(C7-Pad2)*%
X169820000Y-54340000D03*
%TD*%
D23*
%TO.P,MH1,1*%
%TO.N,GND*%
X136397767Y-55142233D03*
X137130000Y-56910000D03*
X136397767Y-58677767D03*
X134630000Y-59410000D03*
X132862233Y-58677767D03*
X132130000Y-56910000D03*
X132862233Y-55142233D03*
X134630000Y-54410000D03*
D24*
X134630000Y-56910000D03*
%TD*%
%TO.P,MH2,1*%
%TO.N,GND*%
X178800000Y-56850000D03*
D23*
X178800000Y-54350000D03*
X177032233Y-55082233D03*
X176300000Y-56850000D03*
X177032233Y-58617767D03*
X178800000Y-59350000D03*
X180567767Y-58617767D03*
X181300000Y-56850000D03*
X180567767Y-55082233D03*
%TD*%
D24*
%TO.P,MH3,1*%
%TO.N,GND*%
X134600000Y-40050000D03*
D23*
X134600000Y-37550000D03*
X132832233Y-38282233D03*
X132100000Y-40050000D03*
X132832233Y-41817767D03*
X134600000Y-42550000D03*
X136367767Y-41817767D03*
X137100000Y-40050000D03*
X136367767Y-38282233D03*
%TD*%
%TO.P,MH4,1*%
%TO.N,GND*%
X180597767Y-38302233D03*
X181330000Y-40070000D03*
X180597767Y-41837767D03*
X178830000Y-42570000D03*
X177062233Y-41837767D03*
X176330000Y-40070000D03*
X177062233Y-38302233D03*
X178830000Y-37570000D03*
D24*
X178830000Y-40070000D03*
%TD*%
D25*
%TO.N,GND*%
X159340000Y-45090000D03*
%TD*%
D26*
%TO.N,Net-(C1-Pad1)*%
X162649999Y-46709920D02*
X162649999Y-45990001D01*
X162649999Y-45990001D02*
X163160000Y-45480000D01*
X163160000Y-42598000D02*
X162220000Y-41658000D01*
X169820000Y-45640000D02*
X167430000Y-45640000D01*
X167430000Y-45640000D02*
X166680000Y-44890000D01*
X163290000Y-44890000D02*
X163160000Y-44760000D01*
X166680000Y-44890000D02*
X163290000Y-44890000D01*
X163160000Y-44760000D02*
X163160000Y-42598000D01*
X163160000Y-45480000D02*
X163160000Y-44760000D01*
X164142000Y-41658000D02*
X165100000Y-40700000D01*
X162220000Y-41658000D02*
X164142000Y-41658000D01*
X162220000Y-41658000D02*
X157992000Y-41658000D01*
X157992000Y-41658000D02*
X157870000Y-41780000D01*
X157870000Y-41780000D02*
X152550000Y-41780000D01*
X151650000Y-40880000D02*
X151650000Y-39090000D01*
X152550000Y-41780000D02*
X151650000Y-40880000D01*
%TO.N,GND*%
X153734000Y-48320000D02*
X153700000Y-48354000D01*
X154124000Y-47930000D02*
X153700000Y-48354000D01*
X156230000Y-47930000D02*
X154124000Y-47930000D01*
X165100000Y-39300000D02*
X165100000Y-38790000D01*
X164592000Y-38282000D02*
X162220000Y-38282000D01*
X165100000Y-38790000D02*
X164592000Y-38282000D01*
D27*
X153700000Y-48354000D02*
X153700000Y-49760000D01*
X151907500Y-51552500D02*
X149300000Y-51552500D01*
X153700000Y-49760000D02*
X151907500Y-51552500D01*
X144050000Y-51552500D02*
X144040000Y-51562500D01*
X149300000Y-51552500D02*
X144050000Y-51552500D01*
X144040000Y-51562500D02*
X138770000Y-51562500D01*
D28*
X155510000Y-53080000D02*
X155480000Y-53050000D01*
X155510000Y-54280000D02*
X155510000Y-53080000D01*
D27*
X151907500Y-51552500D02*
X151907500Y-51617500D01*
X151907500Y-51617500D02*
X154160000Y-53870000D01*
X154690000Y-53870000D02*
X154720000Y-53900000D01*
X154160000Y-53870000D02*
X154690000Y-53870000D01*
D26*
X160320000Y-52100000D02*
X160260000Y-52100000D01*
X159300000Y-53060000D02*
X158350000Y-53060000D01*
X160260000Y-52100000D02*
X159300000Y-53060000D01*
X158350000Y-53060000D02*
X158350000Y-52650000D01*
X158350000Y-52650000D02*
X158040000Y-52340000D01*
X156190000Y-52340000D02*
X155480000Y-53050000D01*
X158040000Y-52340000D02*
X156190000Y-52340000D01*
D27*
X138770000Y-51562500D02*
X136697500Y-51562500D01*
X136697500Y-51562500D02*
X134900000Y-53360000D01*
X134900000Y-56640000D02*
X134630000Y-56910000D01*
X134900000Y-53360000D02*
X134900000Y-56640000D01*
X135560000Y-39090000D02*
X134600000Y-40050000D01*
X141650000Y-39090000D02*
X135560000Y-39090000D01*
D28*
X159360000Y-45070000D02*
X159340000Y-45090000D01*
X160250000Y-45070000D02*
X159360000Y-45070000D01*
D27*
X157190000Y-39090000D02*
X156650000Y-39090000D01*
X159190000Y-37090000D02*
X157190000Y-39090000D01*
X161742000Y-38282000D02*
X160550000Y-37090000D01*
X160550000Y-37090000D02*
X159190000Y-37090000D01*
X162220000Y-38282000D02*
X161742000Y-38282000D01*
X162922000Y-37580000D02*
X162220000Y-38282000D01*
X178830000Y-40070000D02*
X176340000Y-37580000D01*
X176340000Y-37580000D02*
X165150000Y-37580000D01*
X165150000Y-37580000D02*
X162922000Y-37580000D01*
D29*
X165150000Y-39040000D02*
X165100000Y-39090000D01*
X165150000Y-37580000D02*
X165150000Y-39040000D01*
D30*
X160249918Y-50610001D02*
X160249918Y-51099918D01*
X160320000Y-51170000D02*
X160320000Y-52100000D01*
X160249918Y-51099918D02*
X160320000Y-51170000D01*
X160463709Y-51956291D02*
X160320000Y-52100000D01*
D28*
X160309709Y-51062291D02*
X160463709Y-51216291D01*
X160309709Y-50060291D02*
X160309709Y-51062291D01*
D30*
X160463709Y-51216291D02*
X160463709Y-51956291D01*
D28*
X160250000Y-45070000D02*
X160250000Y-45230000D01*
X160250000Y-45230000D02*
X161024709Y-46004709D01*
X161024709Y-46004709D02*
X161000000Y-46004709D01*
D31*
X160999919Y-47185080D02*
X161000000Y-47184999D01*
X160999919Y-48459921D02*
X160999919Y-47185080D01*
X160999919Y-48459921D02*
X160999919Y-48740081D01*
X160309709Y-49430291D02*
X160309709Y-50060291D01*
X160999919Y-48740081D02*
X160309709Y-49430291D01*
X160999919Y-49734920D02*
X161000000Y-49735001D01*
X160999919Y-48459921D02*
X160999919Y-49734920D01*
X160999919Y-48459921D02*
X160999919Y-50045214D01*
D26*
%TO.N,Net-(C3-Pad1)*%
X156910000Y-54280000D02*
X156910000Y-53050000D01*
%TO.N,Net-(C4-Pad1)*%
X155480000Y-51650000D02*
X156910000Y-51650000D01*
X158800002Y-49709921D02*
X158029923Y-50480000D01*
X159350001Y-49709921D02*
X158800002Y-49709921D01*
X158029923Y-50480000D02*
X157450000Y-50480000D01*
X156910000Y-51020000D02*
X156910000Y-51650000D01*
X157450000Y-50480000D02*
X156910000Y-51020000D01*
D30*
%TO.N,Net-(C5-Pad1)*%
X161749920Y-45169920D02*
X161650000Y-45070000D01*
X161749920Y-46309999D02*
X161749920Y-45169920D01*
%TO.N,Net-(C6-Pad1)*%
X161749920Y-52070080D02*
X161720000Y-52100000D01*
X161749920Y-50610001D02*
X161749920Y-52070080D01*
D26*
%TO.N,Net-(C7-Pad2)*%
X162649999Y-47709920D02*
X162649999Y-49009999D01*
X162649999Y-49009999D02*
X162649999Y-49209920D01*
X167200000Y-49040000D02*
X164240000Y-49040000D01*
X162649999Y-49209920D02*
X163310080Y-49209920D01*
X163480000Y-49040000D02*
X164240000Y-49040000D01*
X163310080Y-49209920D02*
X163480000Y-49040000D01*
X163909921Y-48709921D02*
X164240000Y-49040000D01*
X162649999Y-48709921D02*
X163909921Y-48709921D01*
X164009922Y-48209922D02*
X164240000Y-48440000D01*
X164240000Y-48440000D02*
X164240000Y-49040000D01*
X164240000Y-47970000D02*
X164240000Y-48440000D01*
X163979920Y-47709920D02*
X164240000Y-47970000D01*
X162649999Y-47709920D02*
X163979920Y-47709920D01*
D27*
X169820000Y-51660000D02*
X167200000Y-49040000D01*
X169820000Y-54340000D02*
X169820000Y-51660000D01*
D29*
X169820000Y-51660000D02*
X169410000Y-51660000D01*
X165959922Y-48209922D02*
X162979922Y-48209922D01*
D26*
X162979922Y-48209922D02*
X164009922Y-48209922D01*
X162649999Y-48209922D02*
X162979922Y-48209922D01*
D29*
X167030000Y-49280000D02*
X166080000Y-49280000D01*
X169410000Y-51660000D02*
X167030000Y-49280000D01*
X167030000Y-49280000D02*
X165959922Y-48209922D01*
X165509921Y-48709921D02*
X162809128Y-48709921D01*
X166080000Y-49280000D02*
X165509921Y-48709921D01*
X165959922Y-48209922D02*
X162809128Y-48209922D01*
X165720000Y-47970000D02*
X165959922Y-48209922D01*
X164240000Y-47970000D02*
X165720000Y-47970000D01*
D26*
%TO.N,Net-(C7-Pad1)*%
X163600079Y-47209921D02*
X164240000Y-46570000D01*
X162649999Y-47209921D02*
X163600079Y-47209921D01*
%TO.N,Net-(C10-Pad1)*%
X159350001Y-48709921D02*
X159350001Y-47709920D01*
X158789922Y-48209922D02*
X159350001Y-48209922D01*
X149321500Y-45306000D02*
X149300000Y-45327500D01*
X153700000Y-45306000D02*
X149321500Y-45306000D01*
X144050000Y-45327500D02*
X144040000Y-45337500D01*
X149300000Y-45327500D02*
X144050000Y-45327500D01*
X144040000Y-45337500D02*
X138770000Y-45337500D01*
X146650000Y-39090000D02*
X144300000Y-41440000D01*
X144300000Y-45077500D02*
X144040000Y-45337500D01*
X144300000Y-41440000D02*
X144300000Y-45077500D01*
X157820000Y-47950000D02*
X157820000Y-46520000D01*
X156606000Y-45306000D02*
X153700000Y-45306000D01*
X157820000Y-46520000D02*
X156606000Y-45306000D01*
D28*
X157820000Y-47950000D02*
X158020000Y-47950000D01*
X157820000Y-47950000D02*
X157990000Y-47950000D01*
X158670000Y-48630000D02*
X159444709Y-48630000D01*
X157990000Y-47950000D02*
X158670000Y-48630000D01*
X158540000Y-47950000D02*
X158710000Y-48120000D01*
X157820000Y-47950000D02*
X158540000Y-47950000D01*
D26*
X158710000Y-48120000D02*
X158789922Y-48209922D01*
X158665000Y-48085000D02*
X158710000Y-48120000D01*
D28*
X159295000Y-48085000D02*
X159420000Y-48210000D01*
X158665000Y-48085000D02*
X159295000Y-48085000D01*
X158870000Y-47790000D02*
X159430000Y-47790000D01*
X158710000Y-47950000D02*
X158870000Y-47790000D01*
X157820000Y-47950000D02*
X158710000Y-47950000D01*
D26*
%TO.N,Net-(P2-Pad2)*%
X159600000Y-53820000D02*
X160250000Y-53170000D01*
X162649999Y-52820001D02*
X162649999Y-50209920D01*
X158410000Y-53820000D02*
X159600000Y-53820000D01*
X157990000Y-54240000D02*
X158410000Y-53820000D01*
X157990000Y-54970000D02*
X157990000Y-54240000D01*
X157270000Y-55690000D02*
X157990000Y-54970000D01*
X162300000Y-53170000D02*
X162649999Y-52820001D01*
X148940000Y-55690000D02*
X157270000Y-55690000D01*
X160250000Y-53170000D02*
X162300000Y-53170000D01*
X146650000Y-57980000D02*
X148940000Y-55690000D01*
%TO.N,Net-(R2-Pad1)*%
X159350001Y-50209920D02*
X159310080Y-50209920D01*
X158350000Y-51170000D02*
X158350000Y-51660000D01*
X159310080Y-50209920D02*
X158350000Y-51170000D01*
%TO.N,Net-(R3-Pad1)*%
X162649999Y-49709921D02*
X163049921Y-49709921D01*
X163780000Y-50440000D02*
X164240000Y-50440000D01*
X163049921Y-49709921D02*
X163780000Y-50440000D01*
%TO.N,Net-(R4-Pad2)*%
X157960080Y-49209920D02*
X157820000Y-49350000D01*
X159350001Y-49209920D02*
X157960080Y-49209920D01*
X156250000Y-49350000D02*
X156230000Y-49330000D01*
X157820000Y-49350000D02*
X156250000Y-49350000D01*
%TD*%
D32*
%TO.N,Net-(C7-Pad2)*%
X182688009Y-54798831D02*
X182678847Y-54776713D01*
X182199838Y-54059825D01*
X181590175Y-53450162D01*
X180873287Y-52971153D01*
X180076724Y-52641206D01*
X179231097Y-52473000D01*
X178368903Y-52473000D01*
X177523276Y-52641206D01*
X176726713Y-52971153D01*
X176009825Y-53450162D01*
X175400162Y-54059825D01*
X174921153Y-54776713D01*
X174591206Y-55573276D01*
X174423000Y-56418903D01*
X174423000Y-57281097D01*
X174591206Y-58126724D01*
X174921153Y-58923287D01*
X175400162Y-59640175D01*
X176009825Y-60249838D01*
X176726713Y-60728847D01*
X176766917Y-60745500D01*
X162417000Y-60745500D01*
X162417000Y-53663276D01*
X162494575Y-53639745D01*
X162582479Y-53592759D01*
X162659527Y-53529527D01*
X162675376Y-53510215D01*
X162990219Y-53195373D01*
X163009526Y-53179528D01*
X163072758Y-53102480D01*
X163119744Y-53014576D01*
X163148677Y-52919194D01*
X163155999Y-52844855D01*
X163155999Y-52844848D01*
X163158446Y-52820002D01*
X163155999Y-52795156D01*
X163155999Y-50590494D01*
X163185973Y-50565895D01*
X163187925Y-50563517D01*
X163357157Y-50732749D01*
X163357157Y-50740000D01*
X163364513Y-50814689D01*
X163386299Y-50886508D01*
X163421678Y-50952696D01*
X163469289Y-51010711D01*
X163527304Y-51058322D01*
X163593492Y-51093701D01*
X163665311Y-51115487D01*
X163740000Y-51122843D01*
X164740000Y-51122843D01*
X164814689Y-51115487D01*
X164886508Y-51093701D01*
X164952696Y-51058322D01*
X165010711Y-51010711D01*
X165058322Y-50952696D01*
X165093701Y-50886508D01*
X165115487Y-50814689D01*
X165122843Y-50740000D01*
X165122843Y-50140000D01*
X165115487Y-50065311D01*
X165093701Y-49993492D01*
X165058322Y-49927304D01*
X165010711Y-49869289D01*
X164952696Y-49821678D01*
X164886508Y-49786299D01*
X164814689Y-49764513D01*
X164740000Y-49757157D01*
X163812749Y-49757157D01*
X163425297Y-49369706D01*
X163409448Y-49350394D01*
X163332400Y-49287162D01*
X163244496Y-49240176D01*
X163149114Y-49211243D01*
X163074775Y-49203921D01*
X163074767Y-49203921D01*
X163049921Y-49201474D01*
X163025075Y-49203921D01*
X162625145Y-49203921D01*
X162574381Y-49208921D01*
X162445388Y-49208921D01*
X162417000Y-49211717D01*
X162417000Y-47708125D01*
X162445388Y-47710921D01*
X162574381Y-47710921D01*
X162625145Y-47715921D01*
X163575233Y-47715921D01*
X163600079Y-47718368D01*
X163624925Y-47715921D01*
X163624933Y-47715921D01*
X163699272Y-47708599D01*
X163794654Y-47679666D01*
X163882558Y-47632680D01*
X163959606Y-47569448D01*
X163975455Y-47550136D01*
X164118591Y-47407000D01*
X182690910Y-47407000D01*
X182688009Y-54798831D01*
%TA.AperFunction,Conductor*%
D33*
G36*
X182688009Y-54798831D02*
G01*
X182678847Y-54776713D01*
X182199838Y-54059825D01*
X181590175Y-53450162D01*
X180873287Y-52971153D01*
X180076724Y-52641206D01*
X179231097Y-52473000D01*
X178368903Y-52473000D01*
X177523276Y-52641206D01*
X176726713Y-52971153D01*
X176009825Y-53450162D01*
X175400162Y-54059825D01*
X174921153Y-54776713D01*
X174591206Y-55573276D01*
X174423000Y-56418903D01*
X174423000Y-57281097D01*
X174591206Y-58126724D01*
X174921153Y-58923287D01*
X175400162Y-59640175D01*
X176009825Y-60249838D01*
X176726713Y-60728847D01*
X176766917Y-60745500D01*
X162417000Y-60745500D01*
X162417000Y-53663276D01*
X162494575Y-53639745D01*
X162582479Y-53592759D01*
X162659527Y-53529527D01*
X162675376Y-53510215D01*
X162990219Y-53195373D01*
X163009526Y-53179528D01*
X163072758Y-53102480D01*
X163119744Y-53014576D01*
X163148677Y-52919194D01*
X163155999Y-52844855D01*
X163155999Y-52844848D01*
X163158446Y-52820002D01*
X163155999Y-52795156D01*
X163155999Y-50590494D01*
X163185973Y-50565895D01*
X163187925Y-50563517D01*
X163357157Y-50732749D01*
X163357157Y-50740000D01*
X163364513Y-50814689D01*
X163386299Y-50886508D01*
X163421678Y-50952696D01*
X163469289Y-51010711D01*
X163527304Y-51058322D01*
X163593492Y-51093701D01*
X163665311Y-51115487D01*
X163740000Y-51122843D01*
X164740000Y-51122843D01*
X164814689Y-51115487D01*
X164886508Y-51093701D01*
X164952696Y-51058322D01*
X165010711Y-51010711D01*
X165058322Y-50952696D01*
X165093701Y-50886508D01*
X165115487Y-50814689D01*
X165122843Y-50740000D01*
X165122843Y-50140000D01*
X165115487Y-50065311D01*
X165093701Y-49993492D01*
X165058322Y-49927304D01*
X165010711Y-49869289D01*
X164952696Y-49821678D01*
X164886508Y-49786299D01*
X164814689Y-49764513D01*
X164740000Y-49757157D01*
X163812749Y-49757157D01*
X163425297Y-49369706D01*
X163409448Y-49350394D01*
X163332400Y-49287162D01*
X163244496Y-49240176D01*
X163149114Y-49211243D01*
X163074775Y-49203921D01*
X163074767Y-49203921D01*
X163049921Y-49201474D01*
X163025075Y-49203921D01*
X162625145Y-49203921D01*
X162574381Y-49208921D01*
X162445388Y-49208921D01*
X162417000Y-49211717D01*
X162417000Y-47708125D01*
X162445388Y-47710921D01*
X162574381Y-47710921D01*
X162625145Y-47715921D01*
X163575233Y-47715921D01*
X163600079Y-47718368D01*
X163624925Y-47715921D01*
X163624933Y-47715921D01*
X163699272Y-47708599D01*
X163794654Y-47679666D01*
X163882558Y-47632680D01*
X163959606Y-47569448D01*
X163975455Y-47550136D01*
X164118591Y-47407000D01*
X182690910Y-47407000D01*
X182688009Y-54798831D01*
G37*
%TD.AperFunction*%
%TD*%
D32*
%TO.N,Net-(C1-Pad1)*%
X157052194Y-37252151D02*
X156835262Y-37209000D01*
X156464738Y-37209000D01*
X156101333Y-37281286D01*
X155759013Y-37423080D01*
X155450933Y-37628932D01*
X155188932Y-37890933D01*
X154983080Y-38199013D01*
X154841286Y-38541333D01*
X154769000Y-38904738D01*
X154769000Y-39275262D01*
X154841286Y-39638667D01*
X154983080Y-39980987D01*
X155188932Y-40289067D01*
X155450933Y-40551068D01*
X155759013Y-40756920D01*
X156101333Y-40898714D01*
X156464738Y-40971000D01*
X156835262Y-40971000D01*
X157198667Y-40898714D01*
X157540987Y-40756920D01*
X157849067Y-40551068D01*
X158111068Y-40289067D01*
X158316920Y-39980987D01*
X158346797Y-39908859D01*
X159768657Y-38487000D01*
X159971345Y-38487000D01*
X160593582Y-39109238D01*
X160594513Y-39118689D01*
X160616299Y-39190508D01*
X160651678Y-39256696D01*
X160699289Y-39314711D01*
X160757304Y-39362322D01*
X160823492Y-39397701D01*
X160895311Y-39419487D01*
X160930104Y-39422914D01*
X160934892Y-39426843D01*
X160962113Y-39449183D01*
X161204804Y-39578904D01*
X161468140Y-39658786D01*
X161742000Y-39685760D01*
X161810632Y-39679000D01*
X162151375Y-39679000D01*
X162220000Y-39685759D01*
X162288625Y-39679000D01*
X162493860Y-39658786D01*
X162757195Y-39578904D01*
X162999887Y-39449183D01*
X163027108Y-39426843D01*
X163470000Y-39426843D01*
X163544689Y-39419487D01*
X163616508Y-39397701D01*
X163682696Y-39362322D01*
X163740711Y-39314711D01*
X163788322Y-39256696D01*
X163823701Y-39190508D01*
X163845487Y-39118689D01*
X163852843Y-39044000D01*
X163852843Y-38977000D01*
X164217829Y-38977000D01*
X164206700Y-39090000D01*
X164217157Y-39196175D01*
X164217157Y-39600000D01*
X164224513Y-39674689D01*
X164246299Y-39746508D01*
X164281678Y-39812696D01*
X164329289Y-39870711D01*
X164387304Y-39918322D01*
X164453492Y-39953701D01*
X164525311Y-39975487D01*
X164600000Y-39982843D01*
X165095360Y-39982843D01*
X165100000Y-39983300D01*
X165104640Y-39982843D01*
X165600000Y-39982843D01*
X165674689Y-39975487D01*
X165746508Y-39953701D01*
X165812696Y-39918322D01*
X165870711Y-39870711D01*
X165918322Y-39812696D01*
X165953701Y-39746508D01*
X165975487Y-39674689D01*
X165982843Y-39600000D01*
X165982843Y-39356994D01*
X166026136Y-39214274D01*
X166039000Y-39083667D01*
X166039000Y-39083660D01*
X166043300Y-39040000D01*
X166039000Y-38996340D01*
X166039000Y-38977000D01*
X174584661Y-38977000D01*
X174453000Y-39638903D01*
X174453000Y-40501097D01*
X174621206Y-41346724D01*
X174951153Y-42143287D01*
X175430162Y-42860175D01*
X176039825Y-43469838D01*
X176756713Y-43948847D01*
X177553276Y-44278794D01*
X178398903Y-44447000D01*
X179261097Y-44447000D01*
X180106724Y-44278794D01*
X180903287Y-43948847D01*
X181620175Y-43469838D01*
X182229838Y-42860175D01*
X182692966Y-42167054D01*
X182691249Y-46542780D01*
X165122843Y-46534341D01*
X165122843Y-46270000D01*
X165115487Y-46195311D01*
X165093701Y-46123492D01*
X165058322Y-46057304D01*
X165010711Y-45999289D01*
X164952696Y-45951678D01*
X164886508Y-45916299D01*
X164814689Y-45894513D01*
X164740000Y-45887157D01*
X163740000Y-45887157D01*
X163665311Y-45894513D01*
X163593492Y-45916299D01*
X163527304Y-45951678D01*
X163469289Y-45999289D01*
X163421678Y-46057304D01*
X163386299Y-46123492D01*
X163364513Y-46195311D01*
X163357157Y-46270000D01*
X163357157Y-46533493D01*
X162457875Y-46533061D01*
X162476997Y-43750873D01*
X162474727Y-43726080D01*
X162467664Y-43702207D01*
X162456079Y-43680170D01*
X162440418Y-43660817D01*
X162421281Y-43644891D01*
X162399406Y-43633004D01*
X162375632Y-43625613D01*
X162350000Y-43623000D01*
X160417000Y-43623000D01*
X160417000Y-43120000D01*
X160414560Y-43095224D01*
X160407333Y-43071399D01*
X160395597Y-43049443D01*
X160379803Y-43030197D01*
X160360557Y-43014403D01*
X160338601Y-43002667D01*
X160314776Y-42995440D01*
X160290228Y-42993000D01*
X149287000Y-42973228D01*
X149287000Y-36154500D01*
X158149843Y-36154500D01*
X157052194Y-37252151D01*
%TA.AperFunction,Conductor*%
D33*
G36*
X157052194Y-37252151D02*
G01*
X156835262Y-37209000D01*
X156464738Y-37209000D01*
X156101333Y-37281286D01*
X155759013Y-37423080D01*
X155450933Y-37628932D01*
X155188932Y-37890933D01*
X154983080Y-38199013D01*
X154841286Y-38541333D01*
X154769000Y-38904738D01*
X154769000Y-39275262D01*
X154841286Y-39638667D01*
X154983080Y-39980987D01*
X155188932Y-40289067D01*
X155450933Y-40551068D01*
X155759013Y-40756920D01*
X156101333Y-40898714D01*
X156464738Y-40971000D01*
X156835262Y-40971000D01*
X157198667Y-40898714D01*
X157540987Y-40756920D01*
X157849067Y-40551068D01*
X158111068Y-40289067D01*
X158316920Y-39980987D01*
X158346797Y-39908859D01*
X159768657Y-38487000D01*
X159971345Y-38487000D01*
X160593582Y-39109238D01*
X160594513Y-39118689D01*
X160616299Y-39190508D01*
X160651678Y-39256696D01*
X160699289Y-39314711D01*
X160757304Y-39362322D01*
X160823492Y-39397701D01*
X160895311Y-39419487D01*
X160930104Y-39422914D01*
X160934892Y-39426843D01*
X160962113Y-39449183D01*
X161204804Y-39578904D01*
X161468140Y-39658786D01*
X161742000Y-39685760D01*
X161810632Y-39679000D01*
X162151375Y-39679000D01*
X162220000Y-39685759D01*
X162288625Y-39679000D01*
X162493860Y-39658786D01*
X162757195Y-39578904D01*
X162999887Y-39449183D01*
X163027108Y-39426843D01*
X163470000Y-39426843D01*
X163544689Y-39419487D01*
X163616508Y-39397701D01*
X163682696Y-39362322D01*
X163740711Y-39314711D01*
X163788322Y-39256696D01*
X163823701Y-39190508D01*
X163845487Y-39118689D01*
X163852843Y-39044000D01*
X163852843Y-38977000D01*
X164217829Y-38977000D01*
X164206700Y-39090000D01*
X164217157Y-39196175D01*
X164217157Y-39600000D01*
X164224513Y-39674689D01*
X164246299Y-39746508D01*
X164281678Y-39812696D01*
X164329289Y-39870711D01*
X164387304Y-39918322D01*
X164453492Y-39953701D01*
X164525311Y-39975487D01*
X164600000Y-39982843D01*
X165095360Y-39982843D01*
X165100000Y-39983300D01*
X165104640Y-39982843D01*
X165600000Y-39982843D01*
X165674689Y-39975487D01*
X165746508Y-39953701D01*
X165812696Y-39918322D01*
X165870711Y-39870711D01*
X165918322Y-39812696D01*
X165953701Y-39746508D01*
X165975487Y-39674689D01*
X165982843Y-39600000D01*
X165982843Y-39356994D01*
X166026136Y-39214274D01*
X166039000Y-39083667D01*
X166039000Y-39083660D01*
X166043300Y-39040000D01*
X166039000Y-38996340D01*
X166039000Y-38977000D01*
X174584661Y-38977000D01*
X174453000Y-39638903D01*
X174453000Y-40501097D01*
X174621206Y-41346724D01*
X174951153Y-42143287D01*
X175430162Y-42860175D01*
X176039825Y-43469838D01*
X176756713Y-43948847D01*
X177553276Y-44278794D01*
X178398903Y-44447000D01*
X179261097Y-44447000D01*
X180106724Y-44278794D01*
X180903287Y-43948847D01*
X181620175Y-43469838D01*
X182229838Y-42860175D01*
X182692966Y-42167054D01*
X182691249Y-46542780D01*
X165122843Y-46534341D01*
X165122843Y-46270000D01*
X165115487Y-46195311D01*
X165093701Y-46123492D01*
X165058322Y-46057304D01*
X165010711Y-45999289D01*
X164952696Y-45951678D01*
X164886508Y-45916299D01*
X164814689Y-45894513D01*
X164740000Y-45887157D01*
X163740000Y-45887157D01*
X163665311Y-45894513D01*
X163593492Y-45916299D01*
X163527304Y-45951678D01*
X163469289Y-45999289D01*
X163421678Y-46057304D01*
X163386299Y-46123492D01*
X163364513Y-46195311D01*
X163357157Y-46270000D01*
X163357157Y-46533493D01*
X162457875Y-46533061D01*
X162476997Y-43750873D01*
X162474727Y-43726080D01*
X162467664Y-43702207D01*
X162456079Y-43680170D01*
X162440418Y-43660817D01*
X162421281Y-43644891D01*
X162399406Y-43633004D01*
X162375632Y-43625613D01*
X162350000Y-43623000D01*
X160417000Y-43623000D01*
X160417000Y-43120000D01*
X160414560Y-43095224D01*
X160407333Y-43071399D01*
X160395597Y-43049443D01*
X160379803Y-43030197D01*
X160360557Y-43014403D01*
X160338601Y-43002667D01*
X160314776Y-42995440D01*
X160290228Y-42993000D01*
X149287000Y-42973228D01*
X149287000Y-36154500D01*
X158149843Y-36154500D01*
X157052194Y-37252151D01*
G37*
%TD.AperFunction*%
%TD*%
D32*
%TO.N,Net-(C10-Pad1)*%
X148553000Y-43630000D02*
X148555440Y-43654776D01*
X148562667Y-43678601D01*
X148574403Y-43700557D01*
X148590197Y-43719803D01*
X148609443Y-43735597D01*
X148631399Y-43747333D01*
X148655224Y-43754560D01*
X148680127Y-43757000D01*
X158605036Y-43747105D01*
X158761495Y-44564004D01*
X158733358Y-44592141D01*
X158647887Y-44720058D01*
X158589013Y-44862191D01*
X158559000Y-45013078D01*
X158559000Y-45166922D01*
X158589013Y-45317809D01*
X158647887Y-45459942D01*
X158733358Y-45587859D01*
X158842141Y-45696642D01*
X158970058Y-45782113D01*
X158996930Y-45793244D01*
X159077818Y-46215575D01*
X159071789Y-46216169D01*
X158977350Y-46244817D01*
X158890315Y-46291338D01*
X158814027Y-46353945D01*
X158751420Y-46430233D01*
X158704899Y-46517268D01*
X158676251Y-46611707D01*
X158666578Y-46709920D01*
X158676251Y-46808133D01*
X158704899Y-46902572D01*
X158735552Y-46959921D01*
X158704899Y-47017269D01*
X158676251Y-47111708D01*
X158666578Y-47209921D01*
X158676251Y-47308134D01*
X158704899Y-47402573D01*
X158751420Y-47489608D01*
X158814027Y-47565896D01*
X158890315Y-47628503D01*
X158977350Y-47675024D01*
X159071789Y-47703672D01*
X159145390Y-47710921D01*
X159364220Y-47710921D01*
X159555379Y-48708996D01*
X159554612Y-48708920D01*
X159425619Y-48708920D01*
X159374855Y-48703920D01*
X158480766Y-48703920D01*
X158466508Y-48696299D01*
X158394689Y-48674513D01*
X158320000Y-48667157D01*
X157320000Y-48667157D01*
X157245311Y-48674513D01*
X157173492Y-48696299D01*
X157107304Y-48731678D01*
X157049289Y-48779289D01*
X157033207Y-48798886D01*
X157000711Y-48759289D01*
X156942696Y-48711678D01*
X156876508Y-48676299D01*
X156804689Y-48654513D01*
X156730000Y-48647157D01*
X155730000Y-48647157D01*
X155655311Y-48654513D01*
X155583492Y-48676299D01*
X155517304Y-48711678D01*
X155459289Y-48759289D01*
X155411678Y-48817304D01*
X155376299Y-48883492D01*
X155354513Y-48955311D01*
X155347157Y-49030000D01*
X155347157Y-49630000D01*
X155354513Y-49704689D01*
X155376299Y-49776508D01*
X155411678Y-49842696D01*
X155459289Y-49900711D01*
X155517304Y-49948322D01*
X155583492Y-49983701D01*
X155655311Y-50005487D01*
X155730000Y-50012843D01*
X156730000Y-50012843D01*
X156804689Y-50005487D01*
X156876508Y-49983701D01*
X156942696Y-49948322D01*
X157000711Y-49900711D01*
X157016793Y-49881114D01*
X157049289Y-49920711D01*
X157107304Y-49968322D01*
X157173492Y-50003701D01*
X157233584Y-50021930D01*
X157167521Y-50057241D01*
X157090473Y-50120473D01*
X157074629Y-50139779D01*
X156569785Y-50644624D01*
X156550473Y-50660473D01*
X156487241Y-50737521D01*
X156440255Y-50825426D01*
X156411322Y-50920808D01*
X156406725Y-50967480D01*
X156335311Y-50974513D01*
X156263492Y-50996299D01*
X156197304Y-51031678D01*
X156195000Y-51033569D01*
X156192696Y-51031678D01*
X156126508Y-50996299D01*
X156054689Y-50974513D01*
X155980000Y-50967157D01*
X154980000Y-50967157D01*
X154905311Y-50974513D01*
X154833492Y-50996299D01*
X154767304Y-51031678D01*
X154709289Y-51079289D01*
X154661678Y-51137304D01*
X154626299Y-51203492D01*
X154604513Y-51275311D01*
X154597157Y-51350000D01*
X154597157Y-51682010D01*
X153945009Y-51679353D01*
X153850656Y-51585000D01*
X154639296Y-50796360D01*
X154692608Y-50752608D01*
X154867183Y-50539887D01*
X154996904Y-50297195D01*
X155076786Y-50033860D01*
X155097000Y-49828625D01*
X155103759Y-49760000D01*
X155097000Y-49691375D01*
X155097000Y-49682627D01*
X155162376Y-49647682D01*
X155220391Y-49600071D01*
X155268002Y-49542056D01*
X155303381Y-49475868D01*
X155325167Y-49404049D01*
X155332523Y-49329360D01*
X155332523Y-48436000D01*
X155408099Y-48436000D01*
X155411678Y-48442696D01*
X155459289Y-48500711D01*
X155517304Y-48548322D01*
X155583492Y-48583701D01*
X155655311Y-48605487D01*
X155730000Y-48612843D01*
X156730000Y-48612843D01*
X156804689Y-48605487D01*
X156876508Y-48583701D01*
X156942696Y-48548322D01*
X157000711Y-48500711D01*
X157048322Y-48442696D01*
X157083701Y-48376508D01*
X157105487Y-48304689D01*
X157112843Y-48230000D01*
X157112843Y-47630000D01*
X157105487Y-47555311D01*
X157083701Y-47483492D01*
X157048322Y-47417304D01*
X157000711Y-47359289D01*
X156942696Y-47311678D01*
X156876508Y-47276299D01*
X156804689Y-47254513D01*
X156730000Y-47247157D01*
X155730000Y-47247157D01*
X155655311Y-47254513D01*
X155583492Y-47276299D01*
X155517304Y-47311678D01*
X155459289Y-47359289D01*
X155411678Y-47417304D01*
X155408099Y-47424000D01*
X155332523Y-47424000D01*
X155332523Y-47378640D01*
X155325167Y-47303951D01*
X155303381Y-47232132D01*
X155268002Y-47165944D01*
X155220391Y-47107929D01*
X155162376Y-47060318D01*
X155096188Y-47024939D01*
X155024369Y-47003153D01*
X154949680Y-46995797D01*
X154035119Y-46995797D01*
X153973859Y-46977214D01*
X153700000Y-46950241D01*
X153426140Y-46977214D01*
X153364880Y-46995797D01*
X152450320Y-46995797D01*
X152375631Y-47003153D01*
X152303812Y-47024939D01*
X152237624Y-47060318D01*
X152179609Y-47107929D01*
X152131998Y-47165944D01*
X152096619Y-47232132D01*
X152074833Y-47303951D01*
X152067477Y-47378640D01*
X152067477Y-49329360D01*
X152074833Y-49404049D01*
X152076104Y-49408240D01*
X151328845Y-50155500D01*
X150485328Y-50155500D01*
X150448462Y-50144317D01*
X150325000Y-50132157D01*
X148275000Y-50132157D01*
X148151538Y-50144317D01*
X148114672Y-50155500D01*
X145192362Y-50155500D01*
X145188462Y-50154317D01*
X145065000Y-50142157D01*
X143015000Y-50142157D01*
X142891538Y-50154317D01*
X142854672Y-50165500D01*
X139955328Y-50165500D01*
X139918462Y-50154317D01*
X139795000Y-50142157D01*
X137745000Y-50142157D01*
X137621538Y-50154317D01*
X137584672Y-50165500D01*
X136766125Y-50165500D01*
X136697500Y-50158741D01*
X136628875Y-50165500D01*
X136423640Y-50185714D01*
X136160305Y-50265596D01*
X135917613Y-50395317D01*
X135704892Y-50569892D01*
X135661140Y-50623204D01*
X134683450Y-51600895D01*
X130738269Y-51584825D01*
X130741970Y-42154442D01*
X131200162Y-42840175D01*
X131809825Y-43449838D01*
X132526713Y-43928847D01*
X133323276Y-44258794D01*
X134168903Y-44427000D01*
X135031097Y-44427000D01*
X135876724Y-44258794D01*
X136673287Y-43928847D01*
X137390175Y-43449838D01*
X137999838Y-42840175D01*
X138478847Y-42123287D01*
X138808794Y-41326724D01*
X138975826Y-40487000D01*
X140386865Y-40487000D01*
X140450933Y-40551068D01*
X140759013Y-40756920D01*
X141101333Y-40898714D01*
X141464738Y-40971000D01*
X141835262Y-40971000D01*
X142198667Y-40898714D01*
X142540987Y-40756920D01*
X142849067Y-40551068D01*
X143111068Y-40289067D01*
X143316920Y-39980987D01*
X143458714Y-39638667D01*
X143531000Y-39275262D01*
X143531000Y-38904738D01*
X143458714Y-38541333D01*
X143316920Y-38199013D01*
X143111068Y-37890933D01*
X142849067Y-37628932D01*
X142540987Y-37423080D01*
X142198667Y-37281286D01*
X141835262Y-37209000D01*
X141464738Y-37209000D01*
X141101333Y-37281286D01*
X140759013Y-37423080D01*
X140450933Y-37628932D01*
X140386865Y-37693000D01*
X138289276Y-37693000D01*
X137999838Y-37259825D01*
X137390175Y-36650162D01*
X136673287Y-36171153D01*
X136633083Y-36154500D01*
X148553000Y-36154500D01*
X148553000Y-43630000D01*
%TA.AperFunction,Conductor*%
D33*
G36*
X148553000Y-43630000D02*
G01*
X148555440Y-43654776D01*
X148562667Y-43678601D01*
X148574403Y-43700557D01*
X148590197Y-43719803D01*
X148609443Y-43735597D01*
X148631399Y-43747333D01*
X148655224Y-43754560D01*
X148680127Y-43757000D01*
X158605036Y-43747105D01*
X158761495Y-44564004D01*
X158733358Y-44592141D01*
X158647887Y-44720058D01*
X158589013Y-44862191D01*
X158559000Y-45013078D01*
X158559000Y-45166922D01*
X158589013Y-45317809D01*
X158647887Y-45459942D01*
X158733358Y-45587859D01*
X158842141Y-45696642D01*
X158970058Y-45782113D01*
X158996930Y-45793244D01*
X159077818Y-46215575D01*
X159071789Y-46216169D01*
X158977350Y-46244817D01*
X158890315Y-46291338D01*
X158814027Y-46353945D01*
X158751420Y-46430233D01*
X158704899Y-46517268D01*
X158676251Y-46611707D01*
X158666578Y-46709920D01*
X158676251Y-46808133D01*
X158704899Y-46902572D01*
X158735552Y-46959921D01*
X158704899Y-47017269D01*
X158676251Y-47111708D01*
X158666578Y-47209921D01*
X158676251Y-47308134D01*
X158704899Y-47402573D01*
X158751420Y-47489608D01*
X158814027Y-47565896D01*
X158890315Y-47628503D01*
X158977350Y-47675024D01*
X159071789Y-47703672D01*
X159145390Y-47710921D01*
X159364220Y-47710921D01*
X159555379Y-48708996D01*
X159554612Y-48708920D01*
X159425619Y-48708920D01*
X159374855Y-48703920D01*
X158480766Y-48703920D01*
X158466508Y-48696299D01*
X158394689Y-48674513D01*
X158320000Y-48667157D01*
X157320000Y-48667157D01*
X157245311Y-48674513D01*
X157173492Y-48696299D01*
X157107304Y-48731678D01*
X157049289Y-48779289D01*
X157033207Y-48798886D01*
X157000711Y-48759289D01*
X156942696Y-48711678D01*
X156876508Y-48676299D01*
X156804689Y-48654513D01*
X156730000Y-48647157D01*
X155730000Y-48647157D01*
X155655311Y-48654513D01*
X155583492Y-48676299D01*
X155517304Y-48711678D01*
X155459289Y-48759289D01*
X155411678Y-48817304D01*
X155376299Y-48883492D01*
X155354513Y-48955311D01*
X155347157Y-49030000D01*
X155347157Y-49630000D01*
X155354513Y-49704689D01*
X155376299Y-49776508D01*
X155411678Y-49842696D01*
X155459289Y-49900711D01*
X155517304Y-49948322D01*
X155583492Y-49983701D01*
X155655311Y-50005487D01*
X155730000Y-50012843D01*
X156730000Y-50012843D01*
X156804689Y-50005487D01*
X156876508Y-49983701D01*
X156942696Y-49948322D01*
X157000711Y-49900711D01*
X157016793Y-49881114D01*
X157049289Y-49920711D01*
X157107304Y-49968322D01*
X157173492Y-50003701D01*
X157233584Y-50021930D01*
X157167521Y-50057241D01*
X157090473Y-50120473D01*
X157074629Y-50139779D01*
X156569785Y-50644624D01*
X156550473Y-50660473D01*
X156487241Y-50737521D01*
X156440255Y-50825426D01*
X156411322Y-50920808D01*
X156406725Y-50967480D01*
X156335311Y-50974513D01*
X156263492Y-50996299D01*
X156197304Y-51031678D01*
X156195000Y-51033569D01*
X156192696Y-51031678D01*
X156126508Y-50996299D01*
X156054689Y-50974513D01*
X155980000Y-50967157D01*
X154980000Y-50967157D01*
X154905311Y-50974513D01*
X154833492Y-50996299D01*
X154767304Y-51031678D01*
X154709289Y-51079289D01*
X154661678Y-51137304D01*
X154626299Y-51203492D01*
X154604513Y-51275311D01*
X154597157Y-51350000D01*
X154597157Y-51682010D01*
X153945009Y-51679353D01*
X153850656Y-51585000D01*
X154639296Y-50796360D01*
X154692608Y-50752608D01*
X154867183Y-50539887D01*
X154996904Y-50297195D01*
X155076786Y-50033860D01*
X155097000Y-49828625D01*
X155103759Y-49760000D01*
X155097000Y-49691375D01*
X155097000Y-49682627D01*
X155162376Y-49647682D01*
X155220391Y-49600071D01*
X155268002Y-49542056D01*
X155303381Y-49475868D01*
X155325167Y-49404049D01*
X155332523Y-49329360D01*
X155332523Y-48436000D01*
X155408099Y-48436000D01*
X155411678Y-48442696D01*
X155459289Y-48500711D01*
X155517304Y-48548322D01*
X155583492Y-48583701D01*
X155655311Y-48605487D01*
X155730000Y-48612843D01*
X156730000Y-48612843D01*
X156804689Y-48605487D01*
X156876508Y-48583701D01*
X156942696Y-48548322D01*
X157000711Y-48500711D01*
X157048322Y-48442696D01*
X157083701Y-48376508D01*
X157105487Y-48304689D01*
X157112843Y-48230000D01*
X157112843Y-47630000D01*
X157105487Y-47555311D01*
X157083701Y-47483492D01*
X157048322Y-47417304D01*
X157000711Y-47359289D01*
X156942696Y-47311678D01*
X156876508Y-47276299D01*
X156804689Y-47254513D01*
X156730000Y-47247157D01*
X155730000Y-47247157D01*
X155655311Y-47254513D01*
X155583492Y-47276299D01*
X155517304Y-47311678D01*
X155459289Y-47359289D01*
X155411678Y-47417304D01*
X155408099Y-47424000D01*
X155332523Y-47424000D01*
X155332523Y-47378640D01*
X155325167Y-47303951D01*
X155303381Y-47232132D01*
X155268002Y-47165944D01*
X155220391Y-47107929D01*
X155162376Y-47060318D01*
X155096188Y-47024939D01*
X155024369Y-47003153D01*
X154949680Y-46995797D01*
X154035119Y-46995797D01*
X153973859Y-46977214D01*
X153700000Y-46950241D01*
X153426140Y-46977214D01*
X153364880Y-46995797D01*
X152450320Y-46995797D01*
X152375631Y-47003153D01*
X152303812Y-47024939D01*
X152237624Y-47060318D01*
X152179609Y-47107929D01*
X152131998Y-47165944D01*
X152096619Y-47232132D01*
X152074833Y-47303951D01*
X152067477Y-47378640D01*
X152067477Y-49329360D01*
X152074833Y-49404049D01*
X152076104Y-49408240D01*
X151328845Y-50155500D01*
X150485328Y-50155500D01*
X150448462Y-50144317D01*
X150325000Y-50132157D01*
X148275000Y-50132157D01*
X148151538Y-50144317D01*
X148114672Y-50155500D01*
X145192362Y-50155500D01*
X145188462Y-50154317D01*
X145065000Y-50142157D01*
X143015000Y-50142157D01*
X142891538Y-50154317D01*
X142854672Y-50165500D01*
X139955328Y-50165500D01*
X139918462Y-50154317D01*
X139795000Y-50142157D01*
X137745000Y-50142157D01*
X137621538Y-50154317D01*
X137584672Y-50165500D01*
X136766125Y-50165500D01*
X136697500Y-50158741D01*
X136628875Y-50165500D01*
X136423640Y-50185714D01*
X136160305Y-50265596D01*
X135917613Y-50395317D01*
X135704892Y-50569892D01*
X135661140Y-50623204D01*
X134683450Y-51600895D01*
X130738269Y-51584825D01*
X130741970Y-42154442D01*
X131200162Y-42840175D01*
X131809825Y-43449838D01*
X132526713Y-43928847D01*
X133323276Y-44258794D01*
X134168903Y-44427000D01*
X135031097Y-44427000D01*
X135876724Y-44258794D01*
X136673287Y-43928847D01*
X137390175Y-43449838D01*
X137999838Y-42840175D01*
X138478847Y-42123287D01*
X138808794Y-41326724D01*
X138975826Y-40487000D01*
X140386865Y-40487000D01*
X140450933Y-40551068D01*
X140759013Y-40756920D01*
X141101333Y-40898714D01*
X141464738Y-40971000D01*
X141835262Y-40971000D01*
X142198667Y-40898714D01*
X142540987Y-40756920D01*
X142849067Y-40551068D01*
X143111068Y-40289067D01*
X143316920Y-39980987D01*
X143458714Y-39638667D01*
X143531000Y-39275262D01*
X143531000Y-38904738D01*
X143458714Y-38541333D01*
X143316920Y-38199013D01*
X143111068Y-37890933D01*
X142849067Y-37628932D01*
X142540987Y-37423080D01*
X142198667Y-37281286D01*
X141835262Y-37209000D01*
X141464738Y-37209000D01*
X141101333Y-37281286D01*
X140759013Y-37423080D01*
X140450933Y-37628932D01*
X140386865Y-37693000D01*
X138289276Y-37693000D01*
X137999838Y-37259825D01*
X137390175Y-36650162D01*
X136673287Y-36171153D01*
X136633083Y-36154500D01*
X148553000Y-36154500D01*
X148553000Y-43630000D01*
G37*
%TD.AperFunction*%
%TD*%
D32*
%TO.N,GND*%
X161470233Y-46908580D02*
X161557268Y-46955101D01*
X161651707Y-46983749D01*
X161749920Y-46993422D01*
X161848132Y-46983749D01*
X161875157Y-46975551D01*
X161855973Y-49938629D01*
X161848133Y-49936251D01*
X161749920Y-49926578D01*
X161651708Y-49936251D01*
X161557269Y-49964899D01*
X161470234Y-50011420D01*
X161447862Y-50029780D01*
X161415154Y-50002937D01*
X161335727Y-49960483D01*
X161249545Y-49934339D01*
X161182378Y-49927724D01*
X160817459Y-49927724D01*
X160750292Y-49934339D01*
X160664110Y-49960483D01*
X160584683Y-50002937D01*
X160515066Y-50060071D01*
X160457932Y-50129688D01*
X160415478Y-50209115D01*
X160389334Y-50295297D01*
X160380507Y-50384924D01*
X160389334Y-50474551D01*
X160415478Y-50560733D01*
X160457932Y-50640160D01*
X160515066Y-50709777D01*
X160584683Y-50766911D01*
X160664110Y-50809365D01*
X160750292Y-50835509D01*
X160817459Y-50842124D01*
X161182378Y-50842124D01*
X161249545Y-50835509D01*
X161250937Y-50835087D01*
X161256169Y-50888212D01*
X161268920Y-50930247D01*
X161268920Y-51248743D01*
X161207304Y-51281678D01*
X161149289Y-51329289D01*
X161101678Y-51387304D01*
X161066299Y-51453492D01*
X161044513Y-51525311D01*
X161037157Y-51600000D01*
X161037157Y-52600000D01*
X161043460Y-52664000D01*
X160274854Y-52664000D01*
X160250000Y-52661552D01*
X160225146Y-52664000D01*
X160150807Y-52671322D01*
X160055425Y-52700255D01*
X159967521Y-52747241D01*
X159890473Y-52810473D01*
X159874629Y-52829779D01*
X159390409Y-53314000D01*
X158434854Y-53314000D01*
X158410000Y-53311552D01*
X158385146Y-53314000D01*
X158310807Y-53321322D01*
X158215425Y-53350255D01*
X158127521Y-53397241D01*
X158050473Y-53460473D01*
X158034629Y-53479779D01*
X157649780Y-53864629D01*
X157630474Y-53880473D01*
X157592843Y-53926326D01*
X157592843Y-53780000D01*
X157585487Y-53705311D01*
X157581024Y-53690597D01*
X157622696Y-53668322D01*
X157680711Y-53620711D01*
X157728322Y-53562696D01*
X157763701Y-53496508D01*
X157785487Y-53424689D01*
X157792843Y-53350000D01*
X157792843Y-52750000D01*
X157785487Y-52675311D01*
X157763701Y-52603492D01*
X157728322Y-52537304D01*
X157680711Y-52479289D01*
X157622696Y-52431678D01*
X157556508Y-52396299D01*
X157484689Y-52374513D01*
X157410000Y-52367157D01*
X156410000Y-52367157D01*
X156335311Y-52374513D01*
X156263492Y-52396299D01*
X156197304Y-52431678D01*
X156139289Y-52479289D01*
X156091678Y-52537304D01*
X156056299Y-52603492D01*
X156034513Y-52675311D01*
X156027157Y-52750000D01*
X156027157Y-53350000D01*
X156034513Y-53424689D01*
X156056299Y-53496508D01*
X156091678Y-53562696D01*
X156139289Y-53620711D01*
X156197304Y-53668322D01*
X156238976Y-53690597D01*
X156234513Y-53705311D01*
X156227157Y-53780000D01*
X156227157Y-54780000D01*
X156234513Y-54854689D01*
X156256299Y-54926508D01*
X156291678Y-54992696D01*
X156339289Y-55050711D01*
X156397304Y-55098322D01*
X156463492Y-55133701D01*
X156535311Y-55155487D01*
X156610000Y-55162843D01*
X157081566Y-55162843D01*
X157060409Y-55184000D01*
X148964845Y-55184000D01*
X148939999Y-55181553D01*
X148915153Y-55184000D01*
X148915146Y-55184000D01*
X148840807Y-55191322D01*
X148745425Y-55220255D01*
X148657521Y-55267241D01*
X148580473Y-55330473D01*
X148564629Y-55349779D01*
X147577159Y-56337249D01*
X147540987Y-56313080D01*
X147198667Y-56171286D01*
X146835262Y-56099000D01*
X146464738Y-56099000D01*
X146101333Y-56171286D01*
X145759013Y-56313080D01*
X145450933Y-56518932D01*
X145188932Y-56780933D01*
X144983080Y-57089013D01*
X144841286Y-57431333D01*
X144769000Y-57794738D01*
X144769000Y-58165262D01*
X144841286Y-58528667D01*
X144983080Y-58870987D01*
X145188932Y-59179067D01*
X145450933Y-59441068D01*
X145759013Y-59646920D01*
X146101333Y-59788714D01*
X146464738Y-59861000D01*
X146835262Y-59861000D01*
X147198667Y-59788714D01*
X147540987Y-59646920D01*
X147849067Y-59441068D01*
X148111068Y-59179067D01*
X148316920Y-58870987D01*
X148458714Y-58528667D01*
X148531000Y-58165262D01*
X148531000Y-57794738D01*
X148458714Y-57431333D01*
X148316920Y-57089013D01*
X148292751Y-57052841D01*
X149149592Y-56196000D01*
X157245154Y-56196000D01*
X157270000Y-56198447D01*
X157294846Y-56196000D01*
X157294854Y-56196000D01*
X157369193Y-56188678D01*
X157464575Y-56159745D01*
X157552479Y-56112759D01*
X157629527Y-56049527D01*
X157645376Y-56030215D01*
X158330220Y-55345372D01*
X158349527Y-55329527D01*
X158412759Y-55252479D01*
X158459745Y-55164575D01*
X158488678Y-55069193D01*
X158496000Y-54994854D01*
X158496000Y-54994853D01*
X158498448Y-54970000D01*
X158496000Y-54945146D01*
X158496000Y-54449591D01*
X158619592Y-54326000D01*
X159575154Y-54326000D01*
X159600000Y-54328447D01*
X159624846Y-54326000D01*
X159624854Y-54326000D01*
X159699193Y-54318678D01*
X159794575Y-54289745D01*
X159882479Y-54242759D01*
X159959527Y-54179527D01*
X159975376Y-54160215D01*
X160459592Y-53676000D01*
X161831776Y-53676000D01*
X161786005Y-60745500D01*
X130734674Y-60745500D01*
X130737986Y-52306184D01*
X154764432Y-52265965D01*
X154767304Y-52268322D01*
X154833492Y-52303701D01*
X154905311Y-52325487D01*
X154980000Y-52332843D01*
X155980000Y-52332843D01*
X156054689Y-52325487D01*
X156126508Y-52303701D01*
X156192696Y-52268322D01*
X156195000Y-52266431D01*
X156197304Y-52268322D01*
X156263492Y-52303701D01*
X156335311Y-52325487D01*
X156410000Y-52332843D01*
X157410000Y-52332843D01*
X157484689Y-52325487D01*
X157556508Y-52303701D01*
X157622696Y-52268322D01*
X157623907Y-52267328D01*
X157637304Y-52278322D01*
X157703492Y-52313701D01*
X157775311Y-52335487D01*
X157850000Y-52342843D01*
X158850000Y-52342843D01*
X158924689Y-52335487D01*
X158996508Y-52313701D01*
X159062696Y-52278322D01*
X159086569Y-52258730D01*
X160120213Y-52257000D01*
X160144985Y-52254518D01*
X160168797Y-52247251D01*
X160190734Y-52235478D01*
X160209953Y-52219652D01*
X160225715Y-52200381D01*
X160237414Y-52178404D01*
X160244601Y-52154568D01*
X160247000Y-52129678D01*
X160233993Y-46991854D01*
X160249918Y-46993422D01*
X160348130Y-46983749D01*
X160442569Y-46955101D01*
X160529605Y-46908580D01*
X160552072Y-46890142D01*
X160584683Y-46916906D01*
X160664110Y-46959360D01*
X160750292Y-46985504D01*
X160817459Y-46992119D01*
X161182378Y-46992119D01*
X161249545Y-46985504D01*
X161335727Y-46959360D01*
X161415154Y-46916906D01*
X161447766Y-46890142D01*
X161470233Y-46908580D01*
%TA.AperFunction,Conductor*%
D33*
G36*
X161470233Y-46908580D02*
G01*
X161557268Y-46955101D01*
X161651707Y-46983749D01*
X161749920Y-46993422D01*
X161848132Y-46983749D01*
X161875157Y-46975551D01*
X161855973Y-49938629D01*
X161848133Y-49936251D01*
X161749920Y-49926578D01*
X161651708Y-49936251D01*
X161557269Y-49964899D01*
X161470234Y-50011420D01*
X161447862Y-50029780D01*
X161415154Y-50002937D01*
X161335727Y-49960483D01*
X161249545Y-49934339D01*
X161182378Y-49927724D01*
X160817459Y-49927724D01*
X160750292Y-49934339D01*
X160664110Y-49960483D01*
X160584683Y-50002937D01*
X160515066Y-50060071D01*
X160457932Y-50129688D01*
X160415478Y-50209115D01*
X160389334Y-50295297D01*
X160380507Y-50384924D01*
X160389334Y-50474551D01*
X160415478Y-50560733D01*
X160457932Y-50640160D01*
X160515066Y-50709777D01*
X160584683Y-50766911D01*
X160664110Y-50809365D01*
X160750292Y-50835509D01*
X160817459Y-50842124D01*
X161182378Y-50842124D01*
X161249545Y-50835509D01*
X161250937Y-50835087D01*
X161256169Y-50888212D01*
X161268920Y-50930247D01*
X161268920Y-51248743D01*
X161207304Y-51281678D01*
X161149289Y-51329289D01*
X161101678Y-51387304D01*
X161066299Y-51453492D01*
X161044513Y-51525311D01*
X161037157Y-51600000D01*
X161037157Y-52600000D01*
X161043460Y-52664000D01*
X160274854Y-52664000D01*
X160250000Y-52661552D01*
X160225146Y-52664000D01*
X160150807Y-52671322D01*
X160055425Y-52700255D01*
X159967521Y-52747241D01*
X159890473Y-52810473D01*
X159874629Y-52829779D01*
X159390409Y-53314000D01*
X158434854Y-53314000D01*
X158410000Y-53311552D01*
X158385146Y-53314000D01*
X158310807Y-53321322D01*
X158215425Y-53350255D01*
X158127521Y-53397241D01*
X158050473Y-53460473D01*
X158034629Y-53479779D01*
X157649780Y-53864629D01*
X157630474Y-53880473D01*
X157592843Y-53926326D01*
X157592843Y-53780000D01*
X157585487Y-53705311D01*
X157581024Y-53690597D01*
X157622696Y-53668322D01*
X157680711Y-53620711D01*
X157728322Y-53562696D01*
X157763701Y-53496508D01*
X157785487Y-53424689D01*
X157792843Y-53350000D01*
X157792843Y-52750000D01*
X157785487Y-52675311D01*
X157763701Y-52603492D01*
X157728322Y-52537304D01*
X157680711Y-52479289D01*
X157622696Y-52431678D01*
X157556508Y-52396299D01*
X157484689Y-52374513D01*
X157410000Y-52367157D01*
X156410000Y-52367157D01*
X156335311Y-52374513D01*
X156263492Y-52396299D01*
X156197304Y-52431678D01*
X156139289Y-52479289D01*
X156091678Y-52537304D01*
X156056299Y-52603492D01*
X156034513Y-52675311D01*
X156027157Y-52750000D01*
X156027157Y-53350000D01*
X156034513Y-53424689D01*
X156056299Y-53496508D01*
X156091678Y-53562696D01*
X156139289Y-53620711D01*
X156197304Y-53668322D01*
X156238976Y-53690597D01*
X156234513Y-53705311D01*
X156227157Y-53780000D01*
X156227157Y-54780000D01*
X156234513Y-54854689D01*
X156256299Y-54926508D01*
X156291678Y-54992696D01*
X156339289Y-55050711D01*
X156397304Y-55098322D01*
X156463492Y-55133701D01*
X156535311Y-55155487D01*
X156610000Y-55162843D01*
X157081566Y-55162843D01*
X157060409Y-55184000D01*
X148964845Y-55184000D01*
X148939999Y-55181553D01*
X148915153Y-55184000D01*
X148915146Y-55184000D01*
X148840807Y-55191322D01*
X148745425Y-55220255D01*
X148657521Y-55267241D01*
X148580473Y-55330473D01*
X148564629Y-55349779D01*
X147577159Y-56337249D01*
X147540987Y-56313080D01*
X147198667Y-56171286D01*
X146835262Y-56099000D01*
X146464738Y-56099000D01*
X146101333Y-56171286D01*
X145759013Y-56313080D01*
X145450933Y-56518932D01*
X145188932Y-56780933D01*
X144983080Y-57089013D01*
X144841286Y-57431333D01*
X144769000Y-57794738D01*
X144769000Y-58165262D01*
X144841286Y-58528667D01*
X144983080Y-58870987D01*
X145188932Y-59179067D01*
X145450933Y-59441068D01*
X145759013Y-59646920D01*
X146101333Y-59788714D01*
X146464738Y-59861000D01*
X146835262Y-59861000D01*
X147198667Y-59788714D01*
X147540987Y-59646920D01*
X147849067Y-59441068D01*
X148111068Y-59179067D01*
X148316920Y-58870987D01*
X148458714Y-58528667D01*
X148531000Y-58165262D01*
X148531000Y-57794738D01*
X148458714Y-57431333D01*
X148316920Y-57089013D01*
X148292751Y-57052841D01*
X149149592Y-56196000D01*
X157245154Y-56196000D01*
X157270000Y-56198447D01*
X157294846Y-56196000D01*
X157294854Y-56196000D01*
X157369193Y-56188678D01*
X157464575Y-56159745D01*
X157552479Y-56112759D01*
X157629527Y-56049527D01*
X157645376Y-56030215D01*
X158330220Y-55345372D01*
X158349527Y-55329527D01*
X158412759Y-55252479D01*
X158459745Y-55164575D01*
X158488678Y-55069193D01*
X158496000Y-54994854D01*
X158496000Y-54994853D01*
X158498448Y-54970000D01*
X158496000Y-54945146D01*
X158496000Y-54449591D01*
X158619592Y-54326000D01*
X159575154Y-54326000D01*
X159600000Y-54328447D01*
X159624846Y-54326000D01*
X159624854Y-54326000D01*
X159699193Y-54318678D01*
X159794575Y-54289745D01*
X159882479Y-54242759D01*
X159959527Y-54179527D01*
X159975376Y-54160215D01*
X160459592Y-53676000D01*
X161831776Y-53676000D01*
X161786005Y-60745500D01*
X130734674Y-60745500D01*
X130737986Y-52306184D01*
X154764432Y-52265965D01*
X154767304Y-52268322D01*
X154833492Y-52303701D01*
X154905311Y-52325487D01*
X154980000Y-52332843D01*
X155980000Y-52332843D01*
X156054689Y-52325487D01*
X156126508Y-52303701D01*
X156192696Y-52268322D01*
X156195000Y-52266431D01*
X156197304Y-52268322D01*
X156263492Y-52303701D01*
X156335311Y-52325487D01*
X156410000Y-52332843D01*
X157410000Y-52332843D01*
X157484689Y-52325487D01*
X157556508Y-52303701D01*
X157622696Y-52268322D01*
X157623907Y-52267328D01*
X157637304Y-52278322D01*
X157703492Y-52313701D01*
X157775311Y-52335487D01*
X157850000Y-52342843D01*
X158850000Y-52342843D01*
X158924689Y-52335487D01*
X158996508Y-52313701D01*
X159062696Y-52278322D01*
X159086569Y-52258730D01*
X160120213Y-52257000D01*
X160144985Y-52254518D01*
X160168797Y-52247251D01*
X160190734Y-52235478D01*
X160209953Y-52219652D01*
X160225715Y-52200381D01*
X160237414Y-52178404D01*
X160244601Y-52154568D01*
X160247000Y-52129678D01*
X160233993Y-46991854D01*
X160249918Y-46993422D01*
X160348130Y-46983749D01*
X160442569Y-46955101D01*
X160529605Y-46908580D01*
X160552072Y-46890142D01*
X160584683Y-46916906D01*
X160664110Y-46959360D01*
X160750292Y-46985504D01*
X160817459Y-46992119D01*
X161182378Y-46992119D01*
X161249545Y-46985504D01*
X161335727Y-46959360D01*
X161415154Y-46916906D01*
X161447766Y-46890142D01*
X161470233Y-46908580D01*
G37*
%TD.AperFunction*%
D32*
X161031678Y-44357304D02*
X160996299Y-44423492D01*
X160974513Y-44495311D01*
X160967157Y-44570000D01*
X160967157Y-45570000D01*
X160974513Y-45644689D01*
X160996299Y-45716508D01*
X161031678Y-45782696D01*
X161079289Y-45840711D01*
X161137304Y-45888322D01*
X161203492Y-45923701D01*
X161268920Y-45943548D01*
X161268920Y-45989753D01*
X161256169Y-46031787D01*
X161250952Y-46084761D01*
X161249545Y-46084334D01*
X161182378Y-46077719D01*
X160817459Y-46077719D01*
X160750292Y-46084334D01*
X160748886Y-46084760D01*
X160743669Y-46031788D01*
X160715021Y-45937348D01*
X160668500Y-45850313D01*
X160605893Y-45774025D01*
X160529605Y-45711418D01*
X160442570Y-45664897D01*
X160348131Y-45636249D01*
X160249918Y-45626576D01*
X160230542Y-45628484D01*
X160227321Y-44356338D01*
X161035927Y-44352127D01*
X161031678Y-44357304D01*
%TA.AperFunction,Conductor*%
D33*
G36*
X161031678Y-44357304D02*
G01*
X160996299Y-44423492D01*
X160974513Y-44495311D01*
X160967157Y-44570000D01*
X160967157Y-45570000D01*
X160974513Y-45644689D01*
X160996299Y-45716508D01*
X161031678Y-45782696D01*
X161079289Y-45840711D01*
X161137304Y-45888322D01*
X161203492Y-45923701D01*
X161268920Y-45943548D01*
X161268920Y-45989753D01*
X161256169Y-46031787D01*
X161250952Y-46084761D01*
X161249545Y-46084334D01*
X161182378Y-46077719D01*
X160817459Y-46077719D01*
X160750292Y-46084334D01*
X160748886Y-46084760D01*
X160743669Y-46031788D01*
X160715021Y-45937348D01*
X160668500Y-45850313D01*
X160605893Y-45774025D01*
X160529605Y-45711418D01*
X160442570Y-45664897D01*
X160348131Y-45636249D01*
X160249918Y-45626576D01*
X160230542Y-45628484D01*
X160227321Y-44356338D01*
X161035927Y-44352127D01*
X161031678Y-44357304D01*
G37*
%TD.AperFunction*%
%TD*%
M02*
