%TF.GenerationSoftware,KiCad,Pcbnew,5.1.8-db9833491~88~ubuntu20.04.1*%
%TF.CreationDate,2020-12-10T20:55:53+01:00*%
%TF.ProjectId,Boost_DC_Converter_TPS61088RHLR,426f6f73-745f-4444-935f-436f6e766572,V1.0*%
%TF.SameCoordinates,Original*%
%TF.FileFunction,Paste,Top*%
%TF.FilePolarity,Positive*%
%FSLAX46Y46*%
G04 Gerber Fmt 4.6, Leading zero omitted, Abs format (unit mm)*
G04 Created by KiCad (PCBNEW 5.1.8-db9833491~88~ubuntu20.04.1) date 2020-12-10 20:55:53*
%MOMM*%
%LPD*%
G01*
G04 APERTURE LIST*
%ADD10R,0.370000X0.500000*%
%ADD11R,0.930000X0.500000*%
%ADD12R,1.721999X2.562005*%
%ADD13O,0.201600X0.503999*%
%ADD14O,0.503999X0.201600*%
%ADD15R,2.300000X1.324000*%
%ADD16R,0.880000X0.480000*%
%ADD17R,0.480000X0.880000*%
%ADD18R,2.499360X1.950720*%
%ADD19R,4.000000X2.750000*%
G04 APERTURE END LIST*
D10*
%TO.C,U1*%
X160720000Y-46380000D03*
X161280000Y-46380000D03*
X160720000Y-50540000D03*
D11*
X161000000Y-46710000D03*
D10*
X161280000Y-50540000D03*
D11*
X161000000Y-50210000D03*
D12*
X160999919Y-48459921D03*
D13*
X160249918Y-50610001D03*
D14*
X159350001Y-50209920D03*
X159350001Y-49709921D03*
X159350001Y-49209920D03*
X159350001Y-48709921D03*
X159350001Y-48209922D03*
X159350001Y-47709920D03*
X159350001Y-47209921D03*
X159350001Y-46709920D03*
D13*
X160249918Y-46309999D03*
X161749920Y-46309999D03*
D14*
X162649999Y-46709920D03*
X162649999Y-47209921D03*
X162649999Y-47709920D03*
X162649999Y-48209922D03*
X162649999Y-48709921D03*
X162649999Y-49209920D03*
X162649999Y-49709921D03*
X162649999Y-50209920D03*
D13*
X161749920Y-50610001D03*
%TD*%
D15*
%TO.C,C1*%
X162220000Y-41658000D03*
X162220000Y-38282000D03*
%TD*%
D16*
%TO.C,C2*%
X165100000Y-40700000D03*
X165100000Y-39300000D03*
%TD*%
D17*
%TO.C,C3*%
X155510000Y-54280000D03*
X156910000Y-54280000D03*
%TD*%
D16*
%TO.C,C4*%
X155480000Y-53050000D03*
X155480000Y-51650000D03*
%TD*%
D17*
%TO.C,C5*%
X161650000Y-45070000D03*
X160250000Y-45070000D03*
%TD*%
%TO.C,C6*%
X161720000Y-52100000D03*
X160320000Y-52100000D03*
%TD*%
D16*
%TO.C,C7*%
X164240000Y-47970000D03*
X164240000Y-46570000D03*
%TD*%
D18*
%TO.C,C8*%
X153700000Y-45306000D03*
X153700000Y-48354000D03*
%TD*%
%TO.C,C9*%
G36*
G01*
X148275000Y-44290000D02*
X150325000Y-44290000D01*
G75*
G02*
X150575000Y-44540000I0J-250000D01*
G01*
X150575000Y-46115000D01*
G75*
G02*
X150325000Y-46365000I-250000J0D01*
G01*
X148275000Y-46365000D01*
G75*
G02*
X148025000Y-46115000I0J250000D01*
G01*
X148025000Y-44540000D01*
G75*
G02*
X148275000Y-44290000I250000J0D01*
G01*
G37*
G36*
G01*
X148275000Y-50515000D02*
X150325000Y-50515000D01*
G75*
G02*
X150575000Y-50765000I0J-250000D01*
G01*
X150575000Y-52340000D01*
G75*
G02*
X150325000Y-52590000I-250000J0D01*
G01*
X148275000Y-52590000D01*
G75*
G02*
X148025000Y-52340000I0J250000D01*
G01*
X148025000Y-50765000D01*
G75*
G02*
X148275000Y-50515000I250000J0D01*
G01*
G37*
%TD*%
%TO.C,C10*%
G36*
G01*
X137745000Y-50525000D02*
X139795000Y-50525000D01*
G75*
G02*
X140045000Y-50775000I0J-250000D01*
G01*
X140045000Y-52350000D01*
G75*
G02*
X139795000Y-52600000I-250000J0D01*
G01*
X137745000Y-52600000D01*
G75*
G02*
X137495000Y-52350000I0J250000D01*
G01*
X137495000Y-50775000D01*
G75*
G02*
X137745000Y-50525000I250000J0D01*
G01*
G37*
G36*
G01*
X137745000Y-44300000D02*
X139795000Y-44300000D01*
G75*
G02*
X140045000Y-44550000I0J-250000D01*
G01*
X140045000Y-46125000D01*
G75*
G02*
X139795000Y-46375000I-250000J0D01*
G01*
X137745000Y-46375000D01*
G75*
G02*
X137495000Y-46125000I0J250000D01*
G01*
X137495000Y-44550000D01*
G75*
G02*
X137745000Y-44300000I250000J0D01*
G01*
G37*
%TD*%
%TO.C,C11*%
G36*
G01*
X143015000Y-44300000D02*
X145065000Y-44300000D01*
G75*
G02*
X145315000Y-44550000I0J-250000D01*
G01*
X145315000Y-46125000D01*
G75*
G02*
X145065000Y-46375000I-250000J0D01*
G01*
X143015000Y-46375000D01*
G75*
G02*
X142765000Y-46125000I0J250000D01*
G01*
X142765000Y-44550000D01*
G75*
G02*
X143015000Y-44300000I250000J0D01*
G01*
G37*
G36*
G01*
X143015000Y-50525000D02*
X145065000Y-50525000D01*
G75*
G02*
X145315000Y-50775000I0J-250000D01*
G01*
X145315000Y-52350000D01*
G75*
G02*
X145065000Y-52600000I-250000J0D01*
G01*
X143015000Y-52600000D01*
G75*
G02*
X142765000Y-52350000I0J250000D01*
G01*
X142765000Y-50775000D01*
G75*
G02*
X143015000Y-50525000I250000J0D01*
G01*
G37*
%TD*%
D16*
%TO.C,R1*%
X156910000Y-53050000D03*
X156910000Y-51650000D03*
%TD*%
%TO.C,R2*%
X158350000Y-51660000D03*
X158350000Y-53060000D03*
%TD*%
%TO.C,R3*%
X164240000Y-49040000D03*
X164240000Y-50440000D03*
%TD*%
%TO.C,R4*%
X157820000Y-49350000D03*
X157820000Y-47950000D03*
%TD*%
%TO.C,R5*%
X156230000Y-49330000D03*
X156230000Y-47930000D03*
%TD*%
D19*
%TO.C,L1*%
X169820000Y-45640000D03*
X169820000Y-54340000D03*
%TD*%
M02*
