M48
; DRILL file {KiCad 5.1.8-db9833491~88~ubuntu20.04.1} date Thu Dec 10 20:55:52 2020
; FORMAT={-:-/ absolute / inch / decimal}
; #@! TF.CreationDate,2020-12-10T20:55:52+01:00
; #@! TF.GenerationSoftware,Kicad,Pcbnew,5.1.8-db9833491~88~ubuntu20.04.1
; #@! TF.FileFunction,Plated,1,2,PTH
FMAT,2
INCH
T1C0.0080
T2C0.0118
T3C0.0157
T4C0.0551
T5C0.1260
%
G90
G05
T1
X6.3081Y-1.9079
X6.3386Y-1.8577
X6.3386Y-1.9581
X6.3691Y-1.9079
T2
X5.202Y-2.2406
X5.2308Y-2.171
X5.2308Y-2.3101
X5.3004Y-2.1421
X5.3004Y-2.339
X5.37Y-2.171
X5.37Y-2.3101
X5.3988Y-2.2406
X5.2008Y-1.5768
X5.2296Y-1.5072
X5.2296Y-1.6464
X5.2992Y-1.4783
X5.2992Y-1.6752
X5.3688Y-1.5072
X5.3688Y-1.6464
X5.3976Y-1.5768
X6.9409Y-2.2382
X6.9698Y-2.1686
X6.9698Y-2.3078
X7.0394Y-2.1398
X7.0394Y-2.3366
X7.109Y-2.1686
X7.109Y-2.3078
X7.1378Y-2.2382
X6.9421Y-1.5776
X6.971Y-1.508
X6.971Y-1.6472
X7.0406Y-1.4791
X7.0406Y-1.676
X7.1101Y-1.508
X7.1101Y-1.6472
X7.139Y-1.5776
T3
X6.2732Y-1.7752
T4
X5.5768Y-1.539
X5.7736Y-1.539
X5.9705Y-1.539
X6.1673Y-1.539
X5.5768Y-2.2827
X5.7736Y-2.2827
T5
X5.3004Y-2.2406
X5.2992Y-1.5768
X7.0394Y-2.2382
X7.0406Y-1.5776
T0
M30
